<svg width="38" height="24" viewBox="0 0 38 24" fill="none" xmlns="http://www.w3.org/2000/svg">
<rect width="38" height="24" rx="2" fill="#2557D6"/>
<path fill-rule="evenodd" clip-rule="evenodd" d="M0.000136349 11.267H1.82543L2.23699 10.2689H3.1584L3.56889 11.267H7.16029V10.5039L7.48087 11.2702H9.34525L9.66582 10.4925V11.267H18.5911L18.587 9.62866H18.7597C18.8806 9.63287 18.9159 9.64411 18.9159 9.84483V11.267H23.5321V10.8856C23.9044 11.0862 24.4836 11.267 25.2456 11.267H27.1877L27.6033 10.2689H28.5247L28.9311 11.267H32.6735V10.3189L33.2403 11.267H36.2392V5H33.2713V5.74014L32.8556 5H29.8102V5.74014L29.4286 5H25.3149C24.6263 5 24.021 5.09663 23.5321 5.36593V5H20.6933V5.36593C20.3822 5.08837 19.9582 5 19.4868 5H9.11567L8.4198 6.61865L7.70518 5H4.43853V5.74014L4.07967 5H1.29375L0 7.97965L0.000136349 11.267ZM11.522 10.364H10.4268L10.4228 6.8448L8.87369 10.364H7.9357L6.38259 6.84168V10.364H4.20976L3.79927 9.36175H1.57495L1.16029 10.364H0L1.91305 5.8706H3.50027L5.31721 10.1249V5.8706H7.0608L8.45889 8.91883L9.7432 5.8706H11.5218L11.522 10.364ZM3.43364 8.42663L2.70245 6.63531L1.97543 8.42663H3.43364ZM15.8819 10.364H12.3132V5.8706H15.8819V6.80631H13.3815V7.61624H15.8219V8.53731H13.3815V9.43466H15.8819V10.364ZM20.9093 7.08076C20.9093 7.79718 20.4337 8.16731 20.1566 8.27845C20.3903 8.3679 20.59 8.52593 20.685 8.65685C20.8358 8.88034 20.8619 9.07998 20.8619 9.48129V10.364H19.7844L19.7803 9.79734C19.7803 9.52696 19.8061 9.13812 19.6117 8.92195C19.4556 8.76392 19.2176 8.72963 18.833 8.72963H17.6862V10.364H16.618V5.8706H19.0751C19.6211 5.8706 20.0234 5.8851 20.3687 6.08582C20.7067 6.28654 20.9093 6.57956 20.9093 7.08076ZM19.5595 7.74864C19.4127 7.83823 19.239 7.84121 19.031 7.84121H17.7332V6.84316H19.0487C19.2348 6.84316 19.4291 6.85156 19.5553 6.92421C19.6939 6.98967 19.7796 7.129 19.7796 7.32145C19.7796 7.51783 19.698 7.67586 19.5595 7.74864ZM22.6219 10.364H21.5318V5.8706H22.6219V10.364ZM35.276 10.364H33.7621L31.7372 6.99144V10.364H29.5615L29.1458 9.36175H26.9266L26.5232 10.364H25.2731C24.7539 10.364 24.0964 10.2485 23.7241 9.86701C23.3486 9.48549 23.1533 8.96871 23.1533 8.15159C23.1533 7.48518 23.27 6.87597 23.7292 6.39456C24.0746 6.03595 24.6154 5.8706 25.3516 5.8706H26.3858V6.83341H25.3733C24.9834 6.83341 24.7633 6.89169 24.5512 7.0996C24.3691 7.2888 24.2442 7.64646 24.2442 8.11744C24.2442 8.59884 24.3393 8.94594 24.5379 9.17268C24.7024 9.3505 25.0012 9.40444 25.2824 9.40444H25.7622L27.2679 5.87073H28.8686L30.6773 10.1209V5.87073H32.3039L34.1817 9.00015V5.87073H35.276V10.364ZM28.7842 8.42663L28.0449 6.63531L27.3097 8.42663H28.7842Z" fill="white"/>
<path fill-rule="evenodd" clip-rule="evenodd" d="M37.9978 17.5392C37.7383 17.9208 37.2326 18.1142 36.548 18.1142H34.485V17.1504H36.5397C36.7435 17.1504 36.8861 17.1234 36.972 17.0391C37.0464 16.9696 37.0983 16.8686 37.0983 16.746C37.0983 16.6151 37.0464 16.5111 36.9678 16.4488C36.8903 16.3802 36.7775 16.349 36.5915 16.349C35.5884 16.3147 34.3369 16.3802 34.3369 14.9579C34.3369 14.306 34.7486 13.6198 35.8697 13.6198H37.9976V12.7256H36.0205C35.4239 12.7256 34.9905 12.8692 34.6835 13.0926V12.7256H31.7592C31.2915 12.7256 30.7426 12.8421 30.4829 13.0926V12.7256H25.2608V13.0926C24.8452 12.7912 24.1439 12.7256 23.8202 12.7256H20.3756V13.0926C20.0468 12.7725 19.3156 12.7256 18.87 12.7256H15.0149L14.1327 13.6854L13.3065 12.7256H7.54775V18.9969H13.1981L14.1071 18.0219L14.9634 18.9969L18.4463 19V17.5247H18.7887C19.2508 17.5319 19.7958 17.5132 20.2767 17.3042V18.9967H23.1494V17.3622H23.288C23.4649 17.3622 23.4823 17.3696 23.4823 17.5472V18.9966H32.2091C32.7632 18.9966 33.3423 18.854 33.663 18.5953V18.9966H36.4312C37.0072 18.9966 37.5697 18.9154 37.9978 18.7075V17.5392ZM20.6946 15.1278C20.6946 16.3764 19.7681 16.6341 18.8343 16.6341H17.5013V18.1417H15.4249L14.1094 16.6538L12.7423 18.1417H8.51073V13.6472H12.8074L14.1218 15.1204L15.4807 13.6472H18.8943C19.7421 13.6472 20.6946 13.8831 20.6946 15.1278ZM12.2012 17.1971H9.57457V16.3029H11.9199V15.3859H9.57457V14.5687H12.2529L13.4214 15.8785L12.2012 17.1971ZM16.4331 17.7094L14.7929 15.8786L16.4331 14.106V17.7094ZM18.8588 15.7133H17.4782V14.5687H18.8712C19.2569 14.5687 19.5246 14.7268 19.5246 15.1198C19.5246 15.5085 19.2693 15.7133 18.8588 15.7133ZM26.0917 13.6472H29.6572V14.5766H27.1556V15.3938H29.5962V16.3108H27.1556V17.205L29.6572 17.2091V18.1417H26.0917V13.6472ZM24.7217 16.053C24.9595 16.1412 25.1539 16.2994 25.245 16.4303C25.3958 16.6497 25.4177 16.8545 25.422 17.2507V18.1417H24.3495V17.5793C24.3495 17.3089 24.3754 16.9086 24.1768 16.6996C24.0207 16.5386 23.7827 16.5001 23.393 16.5001H22.2513V18.1417H21.1779V13.6472H23.6443C24.1851 13.6472 24.5791 13.6712 24.9297 13.8593C25.2668 14.0641 25.4789 14.3446 25.4789 14.8573C25.4787 15.5747 25.0029 15.9408 24.7217 16.053ZM24.1165 15.4856C23.9736 15.5709 23.7968 15.5782 23.589 15.5782H22.2912V14.5687H23.6066C23.7968 14.5687 23.9872 14.5728 24.1165 14.6499C24.2549 14.7227 24.3377 14.8619 24.3377 15.0542C24.3377 15.2465 24.2549 15.4015 24.1165 15.4856ZM33.7603 15.7711C33.9683 15.9875 34.0798 16.2607 34.0798 16.7233C34.0798 17.6902 33.479 18.1415 32.4016 18.1415H30.3209V17.1778H32.3933C32.5959 17.1778 32.7396 17.1508 32.8296 17.0665C32.9031 16.997 32.9558 16.896 32.9558 16.7733C32.9558 16.6424 32.8988 16.5385 32.8255 16.4761C32.7438 16.4075 32.6311 16.3764 32.445 16.3764C31.446 16.3421 30.1948 16.4075 30.1948 14.9853C30.1948 14.3334 30.6022 13.6472 31.7222 13.6472H33.8639V14.6037H31.9042C31.7099 14.6037 31.5836 14.6111 31.4762 14.6849C31.3592 14.7577 31.3157 14.8657 31.3157 15.0083C31.3157 15.1779 31.4151 15.2932 31.5495 15.3431C31.6622 15.3825 31.7833 15.394 31.9652 15.394L32.5403 15.4096C33.1203 15.4238 33.5184 15.5247 33.7603 15.7711ZM38 14.5687H36.053C35.8586 14.5687 35.7294 14.5761 35.6207 14.6499C35.508 14.7227 35.4645 14.8307 35.4645 14.9733C35.4645 15.1429 35.5597 15.2582 35.6982 15.3081C35.8109 15.3475 35.9319 15.359 36.1099 15.359L36.6889 15.3746C37.2731 15.3891 37.6631 15.4901 37.9009 15.7363C37.9442 15.7706 37.9702 15.8091 38 15.8476V14.5687Z" fill="white"/>
</svg>
