<svg width="38" height="24" viewBox="0 0 38 24" fill="none" xmlns="http://www.w3.org/2000/svg">
<g clip-path="url(#clip0_110_53)">
<path d="M34.597 0H3.40308C3.27316 0 3.14301 0 3.01332 0.000747416C2.9037 0.00151748 2.79433 0.00271788 2.68496 0.00566224C2.44642 0.0120266 2.20585 0.0259104 1.9703 0.0676751C1.73099 0.110165 1.5083 0.17947 1.29105 0.288593C1.07747 0.395745 0.881942 0.535897 0.712492 0.703137C0.54297 0.870377 0.400907 1.06296 0.292316 1.27389C0.181683 1.48822 0.111386 1.70798 0.0686154 1.94426C0.0260539 2.1767 0.0118866 2.41399 0.00545845 2.64907C0.00251985 2.75697 0.00125947 2.86487 0.000545477 2.97274C-0.00021213 3.10096 4.04057e-05 3.22909 4.04057e-05 3.35753V20.6427C4.04057e-05 20.7712 -0.00021213 20.8991 0.000545477 21.0275C0.00125947 21.1354 0.00251985 21.2433 0.00545845 21.3512C0.0118866 21.5861 0.0260539 21.8234 0.0686154 22.0557C0.111386 22.2921 0.181683 22.5118 0.292316 22.7261C0.400907 22.9371 0.54297 23.1299 0.712492 23.2969C0.881942 23.4644 1.07747 23.6045 1.29105 23.7114C1.5083 23.8208 1.73099 23.8902 1.9703 23.9326C2.20585 23.9741 2.44642 23.9882 2.68496 23.9946C2.79433 23.9971 2.9037 23.9985 3.01332 23.999C3.14301 24 3.27316 24 3.40308 24H34.597C34.7267 24 34.8568 24 34.9865 23.999C35.0958 23.9985 35.2052 23.9971 35.3151 23.9946C35.5531 23.9882 35.7936 23.9741 36.0298 23.9326C36.2688 23.8902 36.4915 23.8208 36.7088 23.7114C36.9226 23.6045 37.1175 23.4644 37.2873 23.2969C37.4566 23.1299 37.5986 22.9371 37.7075 22.7261C37.8184 22.5118 37.8886 22.2921 37.9312 22.0557C37.9738 21.8234 37.9876 21.5861 37.994 21.3512C37.997 21.2433 37.9985 21.1354 37.999 21.0275C38 20.8991 38 20.7712 38 20.6427V3.35753C38 3.22909 38 3.10096 37.999 2.97274C37.9985 2.86487 37.997 2.75697 37.994 2.64907C37.9876 2.41399 37.9738 2.1767 37.9312 1.94426C37.8886 1.70798 37.8184 1.48822 37.7075 1.27389C37.5986 1.06296 37.4566 0.870377 37.2873 0.703137C37.1175 0.535897 36.9226 0.395745 36.7088 0.288593C36.4915 0.17947 36.2688 0.110165 36.0298 0.0676751C35.7936 0.0259104 35.5531 0.0120266 35.3151 0.00566224C35.2052 0.00271788 35.0958 0.00151748 34.9865 0.000747416C34.8568 0 34.7267 0 34.597 0Z" fill="white"/>
<path d="M34.5971 0.799805L34.9809 0.800529C35.0848 0.801254 35.1888 0.802364 35.2933 0.805172C35.4751 0.810019 35.6878 0.819736 35.8861 0.854796C36.0584 0.885418 36.203 0.931984 36.3417 1.00165C36.4786 1.0703 36.6041 1.16026 36.7136 1.26819C36.8236 1.37683 36.9149 1.50081 36.9854 1.63741C37.0556 1.77319 37.1026 1.91511 37.1334 2.08638C37.1689 2.27985 37.1787 2.49026 37.1836 2.67074C37.1864 2.77262 37.1878 2.8745 37.1883 2.97879C37.1893 3.10493 37.1893 3.23099 37.1893 3.35737V20.6426C37.1893 20.7689 37.1893 20.8948 37.1883 21.0236C37.1878 21.1255 37.1864 21.2273 37.1836 21.3294C37.1787 21.5096 37.1689 21.7199 37.133 21.9157C37.1026 22.0846 37.0557 22.2265 36.9851 22.363C36.9148 22.4992 36.8236 22.6231 36.7141 22.731C36.6039 22.8398 36.4789 22.9295 36.3403 22.9987C36.2026 23.0681 36.0583 23.1146 35.8877 23.1449C35.6854 23.1804 35.4638 23.1902 35.2969 23.1947C35.1919 23.197 35.0874 23.1984 34.9803 23.1989C34.8528 23.1999 34.7247 23.1999 34.5971 23.1999H3.40322C3.40153 23.1999 3.39987 23.1999 3.39815 23.1999C3.27202 23.1999 3.14564 23.1999 3.01721 23.1989C2.9125 23.1984 2.80802 23.1971 2.70701 23.1948C2.53629 23.1902 2.31454 23.1805 2.11391 23.1451C1.9418 23.1146 1.79751 23.0681 1.65802 22.9978C1.52076 22.9292 1.39579 22.8396 1.28557 22.7306C1.1762 22.6229 1.08531 22.4995 1.01504 22.363C0.944696 22.2267 0.897632 22.0843 0.866687 21.9134C0.830917 21.718 0.821091 21.5085 0.81618 21.3296C0.813377 21.2271 0.812206 21.1246 0.81154 21.0227L0.811035 20.722L0.811058 20.6426V3.35737L0.811035 3.27796L0.811517 2.97784C0.812206 2.87536 0.813377 2.77289 0.81618 2.6705C0.821091 2.49132 0.830917 2.28177 0.866983 2.08477C0.897655 1.91538 0.944695 1.77301 1.01541 1.636C1.08513 1.50059 1.17618 1.37697 1.28613 1.26853C1.39564 1.16044 1.52101 1.0706 1.65914 1.00129C1.79714 0.931961 1.94171 0.885418 2.11382 0.854864C2.31213 0.819713 2.52497 0.810019 2.70726 0.80515C2.81117 0.802364 2.91507 0.801254 3.0182 0.800552L3.40322 0.799805H34.5971Z" fill="white"/>
<path d="M10.3741 8.07201C10.6995 7.67053 10.9203 7.13144 10.8621 6.58057C10.3858 6.60393 9.80455 6.89057 9.46805 7.29237C9.16591 7.63645 8.89849 8.19811 8.9682 8.72589C9.50287 8.77164 10.037 8.46224 10.3741 8.07201Z" fill="black"/>
<path d="M10.8558 8.82874C10.0794 8.78311 9.41917 9.26349 9.04838 9.26349C8.67737 9.26349 8.10956 8.85173 7.49542 8.86283C6.69608 8.87441 5.95439 9.32029 5.54876 10.0294C4.71445 11.4481 5.32859 13.5524 6.13991 14.7078C6.53391 15.2794 7.00874 15.9088 7.63441 15.8862C8.22556 15.8633 8.45726 15.5086 9.17583 15.5086C9.89387 15.5086 10.1026 15.8862 10.7284 15.8748C11.3773 15.8633 11.783 15.3029 12.177 14.7307C12.629 14.0791 12.814 13.4499 12.8256 13.4154C12.814 13.4039 11.5743 12.9347 11.5628 11.5279C11.5511 10.3499 12.5361 9.78961 12.5825 9.75486C12.0262 8.94325 11.1571 8.85173 10.8558 8.82874Z" fill="black"/>
<path d="M17.6168 7.23487C19.3044 7.23487 20.4796 8.38251 20.4796 10.0534C20.4796 11.7302 19.2802 12.8838 17.5745 12.8838H15.706V15.8153H14.356V7.23486H17.6168V7.23487ZM15.706 11.7659H17.255C18.4304 11.7659 19.0993 11.1416 19.0993 10.0594C19.0993 8.9772 18.4304 8.35876 17.261 8.35876H15.706V11.7659Z" fill="black"/>
<path d="M20.8325 14.0373C20.8325 12.9431 21.6824 12.2713 23.1893 12.188L24.9251 12.0869V11.6053C24.9251 10.9096 24.4489 10.4934 23.6534 10.4934C22.8998 10.4934 22.4297 10.8501 22.3153 11.4091H21.0857C21.158 10.2792 22.1344 9.44678 23.7016 9.44678C25.2385 9.44678 26.2209 10.2495 26.2209 11.5042V15.8152H24.9732V14.7865H24.9432C24.5756 15.4823 23.7739 15.9222 22.9422 15.9222C21.7005 15.9222 20.8325 15.1611 20.8325 14.0373ZM24.9251 13.4725V12.9789L23.3639 13.074C22.5864 13.1276 22.1465 13.4665 22.1465 14.0017C22.1465 14.5487 22.6045 14.9055 23.3037 14.9055C24.2138 14.9055 24.9251 14.287 24.9251 13.4725Z" fill="black"/>
<path d="M27.3988 18.1168V17.0762C27.4951 17.0999 27.712 17.0999 27.8206 17.0999C28.4233 17.0999 28.7488 16.8502 28.9476 16.208C28.9476 16.1961 29.0623 15.8275 29.0623 15.8215L26.772 9.56006H28.1822L29.7856 14.6501H29.8096L31.413 9.56006H32.7872L30.4123 16.1425C29.8701 17.6589 29.2432 18.1465 27.9292 18.1465C27.8206 18.1465 27.4951 18.1346 27.3988 18.1168Z" fill="black"/>
</g>
<defs>
<clipPath id="clip0_110_53">
<rect width="38" height="24" fill="white"/>
</clipPath>
</defs>
</svg>
