<svg width="1032" height="496" viewBox="0 0 1032 496" fill="none" xmlns="http://www.w3.org/2000/svg">
<path d="M0 0H1032V484C1032 490.627 1026.63 496 1020 496H12C5.37259 496 0 490.627 0 484V0Z" fill="#4842D1"/>
<mask id="mask0_2_3562" style="mask-type:luminance" maskUnits="userSpaceOnUse" x="0" y="0" width="1032" height="496">
<rect width="1032" height="496" rx="12" fill="white"/>
<rect x="1" y="1" width="1030" height="494" rx="11" stroke="white" stroke-width="2"/>
</mask>
<g mask="url(#mask0_2_3562)">
<g opacity="0.1">
<path d="M861.371 206.027C861.088 206.189 860.8 206.35 860.512 206.512C860.8 206.35 861.088 206.189 861.371 206.027Z" fill="#05063A"/>
<path d="M869.641 200.758C869.414 200.912 869.191 201.067 868.959 201.222C869.191 201.067 869.414 200.912 869.641 200.758Z" fill="#05063A"/>
<path d="M852.451 210.641C852.11 210.798 851.77 210.955 851.43 211.112C851.77 210.955 852.11 210.798 852.451 210.641Z" fill="#05063A"/>
<path d="M842.913 214.688C842.535 214.83 842.149 214.968 841.762 215.11C842.149 214.968 842.531 214.83 842.913 214.688Z" fill="#05063A"/>
<path d="M822.085 220.801C821.716 220.881 821.338 220.947 820.965 221.027C821.338 220.947 821.716 220.881 822.085 220.801Z" fill="#05063A"/>
<path d="M877.161 195.113C877.031 195.219 876.9 195.328 876.77 195.433C876.9 195.328 877.031 195.219 877.161 195.113Z" fill="#05063A"/>
<path d="M810.825 222.777C810.519 222.777 810.209 222.778 809.908 222.778C810.209 222.778 810.519 222.777 810.825 222.777Z" fill="#05063A"/>
<path d="M832.78 218.07C832.389 218.186 831.993 218.293 831.598 218.404C831.993 218.293 832.389 218.186 832.78 218.07Z" fill="#05063A"/>
<path d="M146.822 189.087C146.821 189.087 146.821 189.086 146.82 189.086C146.821 189.086 146.821 189.087 146.822 189.087Z" fill="#05063A"/>
<path d="M883.853 189.086C883.853 189.086 883.852 189.087 883.852 189.087C883.852 189.087 883.853 189.086 883.853 189.086Z" fill="#05063A"/>
<path d="M179.403 211.107C179.063 210.955 178.727 210.798 178.391 210.641C178.727 210.798 179.063 210.955 179.403 211.107Z" fill="#05063A"/>
<path d="M170.3 206.503C170.016 206.346 169.737 206.184 169.453 206.027C169.737 206.184 170.016 206.346 170.3 206.503Z" fill="#05063A"/>
<path d="M189.037 215.105C188.655 214.968 188.272 214.83 187.895 214.688C188.272 214.83 188.655 214.968 189.037 215.105Z" fill="#05063A"/>
<path d="M199.232 218.399C198.841 218.288 198.445 218.181 198.059 218.07C198.445 218.181 198.841 218.288 199.232 218.399Z" fill="#05063A"/>
<path d="M161.881 201.213C161.658 201.063 161.44 200.908 161.217 200.758C161.44 200.912 161.658 201.063 161.881 201.213Z" fill="#05063A"/>
<path d="M154.053 195.429C153.923 195.324 153.797 195.219 153.666 195.113C153.797 195.219 153.923 195.324 154.053 195.429Z" fill="#05063A"/>
<path d="M209.877 221.027C209.508 220.952 209.13 220.881 208.766 220.801C209.135 220.881 209.508 220.952 209.877 221.027Z" fill="#05063A"/>
<path d="M515.4 29.2173C547.681 29.2173 595.799 16.9111 619.554 3.98675C642.389 -8.43948 686.541 -16.2893 707.246 -16.3337C708.078 -16.3382 708.945 -16.3471 709.698 -16.3248C700.56 -26.1715 657.927 -31.7086 625.034 -23.7121C592.145 -15.7111 550.119 -12.0152 515.4 -12.0152C480.68 -12.0152 438.654 -15.7111 405.766 -23.7121C372.873 -31.7086 330.239 -26.1715 321.102 -16.3248C321.854 -16.3471 322.721 -16.3382 323.553 -16.3337C344.258 -16.2893 388.41 -8.43948 411.246 3.98675C435.001 16.9111 483.119 29.2173 515.4 29.2173Z" fill="#05063A"/>
<path d="M424.652 111.659C397.848 133.816 414.344 182.205 413.126 206.208C411.913 230.211 395.189 244.91 392.146 271.37C413.343 237.496 424.709 237.875 427.784 209.918C431.433 176.682 414.353 150.115 424.652 111.659Z" fill="#05063A"/>
<path d="M606.158 111.62C616.457 150.075 599.377 176.642 603.027 209.878C606.101 237.835 617.467 237.456 638.665 271.331C635.621 244.87 618.897 230.171 617.684 206.168C616.467 182.166 632.962 133.776 606.158 111.62Z" fill="#05063A"/>
<path d="M799.136 224.098C798.941 224.098 798.741 224.098 798.545 224.098C798.741 224.098 798.941 224.098 799.136 224.098Z" fill="#05063A"/>
<path d="M232.294 224.098C232.099 224.098 231.899 224.098 231.703 224.098C231.899 224.098 232.099 224.098 232.294 224.098Z" fill="#05063A"/>
<path d="M911.544 782.573C917.904 677.269 907.398 664.016 882.925 530.52C879.329 510.911 877.137 492.431 876.041 474.939C874.883 456.487 874.98 439.164 876.05 422.89C876.112 421.934 876.16 420.969 876.23 420.022C876.279 419.301 876.345 418.536 876.398 417.803C877.141 408.432 878.193 399.408 879.523 390.726C884.18 360.234 892.102 333.883 900.844 310.88C908.573 290.533 916.945 272.805 924.265 257.181C912.336 331.117 907.569 421.854 933.01 533.878C961.106 657.594 933.01 742.243 911.544 782.573ZM852.616 908.663C859.425 849.556 852.546 841.786 838.914 765.912C836.858 754.482 835.784 743.759 835.472 733.655C834.283 695.068 844.491 665.768 856.3 642.761C862.062 631.527 868.202 621.791 873.576 613.203C863.69 654.489 858.312 705.44 873.105 769.252C889.439 839.727 868.242 886.577 852.616 908.663ZM796.175 107.839C783.133 119.065 770.575 138.1 687.976 136.632C731.934 122.48 766.227 100.514 778.789 91.7302C791.346 82.9464 807.768 73.1842 811.633 77.0891C815.498 80.994 809.217 96.6091 796.175 107.839ZM219.197 77.0891C223.061 73.1842 239.484 82.9464 252.046 91.7302C264.603 100.514 298.9 122.48 342.854 136.632C260.255 138.1 247.697 119.065 234.655 107.839C221.613 96.6091 215.332 80.994 219.197 77.0891ZM789.013 520.638C790.334 522.919 791.58 525.209 792.772 527.509C772.913 518.165 754.483 511.396 737.942 506.499C723.298 502.163 710.129 499.272 698.804 497.386C670.339 492.649 653.406 494.117 653.406 494.117C653.406 494.117 676.351 501.709 707.18 516.088C720.059 522.096 734.289 529.288 748.832 537.614C769.594 549.497 790.915 563.685 809.666 580.029C812.852 602.854 810.81 624.789 805.079 643.935C784.475 621.867 764.175 604.241 745.174 590.205C732.608 580.919 720.64 573.234 709.513 566.829C666.307 541.968 636.103 536.866 636.103 536.866C636.103 536.866 667.126 556.8 702.149 588.204C711.894 596.943 721.943 606.572 731.727 616.908C749.606 635.792 766.583 657.029 779.092 679.524C780.351 681.792 781.544 683.923 782.768 686.12C775.14 694.952 766.376 701.673 756.935 705.546C752.027 707.561 746.547 709.122 740.676 710.265C725.974 685.306 710.675 664.585 695.907 647.44C687.443 637.615 679.168 628.987 671.272 621.436C635.668 587.377 608 575.248 608 575.248C608 575.248 627.727 596.2 650.562 627.911C656.619 636.326 662.891 645.479 669.075 655.219C680.031 672.466 690.674 691.51 699.332 711.279C654.207 705.813 603.202 679.916 580.292 627.222C546.276 548.99 561.545 504.431 606.019 466.858C612.652 461.255 622.111 455.273 633.511 450.554C672.192 432.306 746.728 397.3 698.619 304.738C688.411 348.502 658.494 355.871 650.637 357.081C650.655 357.059 650.664 357.041 650.681 357.019C650.646 357.045 650.607 357.068 650.571 357.094C649.594 345.669 641.658 336.28 631.002 333.389V333.38C630.703 333.296 630.293 333.193 629.814 333.078C629.624 333.038 629.439 332.993 629.25 332.953C622.001 331.326 599.073 327.977 565.502 340.011C536.166 350.521 529.344 350.939 515.413 350.939C501.486 350.939 494.668 350.521 465.332 340.011C431.752 327.977 408.838 331.326 401.584 332.953C401.395 332.993 401.206 333.038 401.016 333.078C400.537 333.193 400.132 333.296 399.828 333.38L399.832 333.389C389.176 336.28 381.236 345.669 380.259 357.094C380.223 357.068 380.184 357.041 380.144 357.014C380.162 357.036 380.175 357.054 380.193 357.077C372.336 355.867 342.418 348.502 332.211 304.738C284.107 397.3 358.642 432.306 397.319 450.554C408.719 455.273 418.178 461.255 424.815 466.858C469.289 504.431 484.553 548.99 450.543 627.222C427.632 679.916 376.623 705.813 331.502 711.279C340.16 691.51 350.803 672.466 361.754 655.219C367.939 645.479 374.211 636.326 380.267 627.911C403.103 596.2 422.835 575.248 422.835 575.248C422.835 575.248 395.167 587.377 359.562 621.436C351.666 628.987 343.387 637.615 334.923 647.44C320.155 664.585 304.855 685.306 290.154 710.265C284.283 709.122 278.803 707.561 273.895 705.546C264.458 701.673 255.694 694.952 248.062 686.12C249.286 683.923 250.479 681.792 251.742 679.524C264.251 657.029 281.224 635.792 299.103 616.908C308.887 606.572 318.94 596.943 328.685 588.204C363.709 556.8 394.726 536.866 394.726 536.866C394.726 536.866 364.527 541.968 321.322 566.829C310.19 573.234 298.222 580.919 285.656 590.205C266.659 604.241 246.354 621.867 225.755 643.935C220.024 624.789 217.978 602.854 221.169 580.029C239.919 563.685 261.24 549.497 281.998 537.614C296.541 529.288 310.776 522.096 323.65 516.088C354.479 501.709 377.424 494.117 377.424 494.117C377.424 494.117 360.491 492.649 332.031 497.386C320.706 499.272 307.532 502.163 292.892 506.499C276.347 511.396 257.917 518.165 238.062 527.504C239.25 525.209 240.496 522.919 241.816 520.638C259.467 490.146 278.794 470.439 298.192 458.315C246.015 470.803 236.891 489.883 203.972 528.18C216.639 456.883 242.626 378.838 162.047 272.343C175.648 279.539 187.118 287.487 196.806 295.786C204.236 302.15 210.587 308.719 216.058 315.31C243.797 348.733 248.322 382.734 249.048 393.47C249.198 395.712 249.185 396.939 249.185 396.939C249.185 396.939 253.296 351.255 223.7 279.819C194.108 208.384 155.779 219.489 131.32 173.324C126.32 163.886 123.168 153.991 121.381 144.006C121.381 144.006 121.381 144.002 121.377 144.002C121.007 142.151 120.677 140.297 120.439 138.416C120.325 137.499 120.245 136.579 120.157 135.658C120.074 134.751 119.972 133.839 119.924 132.927C119.84 131.362 119.752 129.783 119.669 128.186C119.506 122.952 119.7 117.752 120.25 112.625C121.733 98.8062 125.65 85.5971 131.355 73.9758C135.532 65.4633 140.616 57.7736 146.426 51.3915C150.7 82.8575 155.317 108.039 174.376 134.457C171.471 108.039 174.239 87.9899 180.952 73.8202C200.684 130.303 225.346 147.746 262.336 165.189C231.099 178.483 220.068 180.707 202.805 180.707C238.141 205.244 319.011 185.968 352.731 175.17L352.766 175.161C364.272 205.893 351.943 246.596 342.898 260.717C369.206 249.087 384 208.383 388.934 189.281C389.119 190.611 389.286 191.768 389.453 192.942C391.597 170.504 391.777 147.337 391.377 128.796C390.624 93.8295 394.744 74.8209 408.076 64.0357C410.044 62.4435 412.209 61.0247 414.591 59.7705C414.652 59.7394 414.701 59.7039 414.758 59.6727C414.04 59.6994 413.411 59.7973 412.724 59.8417C379.871 62.0566 374.233 85.9929 341.155 89.4219C307.382 92.9221 278.807 72.7972 241.57 46.5482C204.337 20.2991 163.975 14.5796 150.651 12.427C158.825 -0.306152 167.813 -11.9053 177.426 -22.5081C186.176 -32.1636 195.455 -40.9874 205.173 -48.9973C212.894 -55.3617 220.891 -61.2145 229.096 -66.6005C284.842 -103.177 350.46 -117.769 408.697 -118.818C401.848 -115.683 395.695 -112.668 390.056 -109.75C375.417 -102.167 364.607 -95.3268 356.587 -89.3094C345.266 -80.8147 339.421 -73.9522 335.957 -68.9487C405.193 -95.1667 482.3 -88.1975 482.3 -88.1975L515.417 -49.6956L548.53 -88.1975C548.53 -88.1975 625.637 -95.1667 694.873 -68.9487C691.413 -73.9522 685.564 -80.8147 674.247 -89.3094C666.228 -95.3224 655.413 -102.167 640.773 -109.75C635.135 -112.668 628.982 -115.683 622.137 -118.818C680.374 -117.769 745.997 -103.177 801.747 -66.5916C809.952 -61.2101 817.945 -55.3528 825.67 -48.9885C835.432 -40.9429 844.755 -32.0702 853.549 -22.3568C863.109 -11.7941 872.044 -0.243896 880.183 12.427C866.855 14.5796 826.493 20.2991 789.26 46.5482C752.027 72.7972 723.448 92.9221 689.679 89.4219C656.835 86.0197 651.033 62.399 618.788 59.8996C617.877 59.8284 617.027 59.7083 616.072 59.6727C634.748 69.4216 640.32 88.5458 639.453 128.796C639.057 147.337 639.233 170.509 641.376 192.942C641.544 191.768 641.715 190.616 641.896 189.281C646.83 208.383 661.624 249.087 687.932 260.717C678.891 246.596 666.558 205.893 678.068 175.161L678.099 175.17C711.823 185.968 792.689 205.244 828.024 180.707C810.762 180.707 799.731 178.483 768.493 165.189C805.489 147.746 830.15 130.303 849.878 73.8202C856.595 87.9899 859.364 108.039 856.454 134.457C875.517 108.039 880.13 82.8575 884.404 51.3915C890.214 57.7736 895.298 65.4633 899.475 73.9758C905.179 85.5971 909.101 98.8062 910.58 112.625C911.13 117.752 911.324 122.952 911.165 128.186C911.077 129.783 910.994 131.362 910.906 132.927C910.857 133.839 910.756 134.751 910.677 135.658C910.584 136.579 910.505 137.499 910.391 138.416C910.153 140.297 909.823 142.151 909.453 144.002V144.006C907.666 153.991 904.515 163.886 899.515 173.324C875.055 219.489 836.726 208.384 807.13 279.819C777.539 351.255 781.65 396.939 781.65 396.939C781.65 396.939 781.636 395.712 781.786 393.47C782.508 382.734 787.033 348.733 814.776 315.31C820.247 308.719 826.594 302.15 834.024 295.786C843.712 287.487 855.182 279.539 868.787 272.343C788.204 378.838 814.19 456.883 826.858 528.18C793.939 489.883 784.819 470.803 732.638 458.315C752.036 470.439 771.363 490.146 789.013 520.638ZM802.883 890.082C813.306 950.399 793.666 988.429 779.735 1006C787.988 956.727 782.631 949.754 774.686 885.065C772.191 864.731 773.023 847.199 775.875 831.949C779.365 813.287 785.884 798.059 793.032 785.29C798.754 775.065 804.872 766.41 810.172 758.876C800.154 792.957 793.441 835.462 802.883 890.082ZM454.275 371.509C425.911 361.346 408.574 365.616 408.398 365.656C405.004 366.523 401.505 364.482 400.616 361.048C399.722 357.615 401.721 354.106 405.11 353.181C405.955 352.949 426.07 347.706 458.549 359.336C489.58 370.455 498.33 371.446 515.413 371.446C532.5 371.446 541.25 370.455 572.281 359.336C604.76 347.71 624.884 352.954 625.72 353.181C629.123 354.106 631.143 357.65 630.223 361.093C629.307 364.522 625.83 366.554 622.432 365.656C622.15 365.585 604.83 361.373 576.555 371.509C545.387 382.672 534.986 384.362 515.413 384.362C495.843 384.362 485.443 382.672 454.275 371.509ZM668.891 966.463C679.507 875.298 644.594 860.582 644.594 860.582C654.167 911.67 651.769 998.529 609.54 1057.06C611.358 1028.23 589.513 1008.18 589.513 1008.18C589.513 1008.18 589.847 1010.09 590.23 1013.5C593.897 1016.68 593.598 1028.75 591.287 1032.32C591.577 1068.76 582.426 1138.27 515.417 1182.45C447.919 1135.95 438.76 1068.54 439.235 1032.72C436.915 1029.52 437.54 1017.29 440.476 1013.75C440.925 1010.2 441.321 1008.18 441.321 1008.18C441.321 1008.18 419.472 1028.23 421.29 1057.06C379.066 998.529 376.667 911.67 386.24 860.582C386.24 860.582 351.327 875.298 361.939 966.463C282.764 843.072 345.455 724.591 507.82 720.975C510.351 720.921 512.833 720.806 515.417 720.806C517.996 720.806 520.479 720.921 523.014 720.975C685.374 724.591 748.066 843.072 668.891 966.463ZM256.143 885.065C248.199 949.754 242.842 956.727 251.099 1006C237.168 988.429 217.524 950.399 227.951 890.082C237.393 835.462 230.68 792.957 220.658 758.876C225.958 766.41 232.076 775.065 237.798 785.29C244.946 798.059 251.465 813.287 254.955 831.949C257.807 847.199 258.639 864.731 256.143 885.065ZM195.358 733.655C195.05 743.759 193.971 754.482 191.916 765.912C178.284 841.786 171.409 849.556 178.214 908.663C162.588 886.577 141.39 839.727 157.729 769.252C172.518 705.44 167.14 654.489 157.258 613.203C162.628 621.791 168.768 631.527 174.534 642.761C186.339 665.768 196.551 695.068 195.358 733.655ZM119.286 782.573C97.8239 742.243 69.7287 657.594 97.8239 533.878C123.26 421.854 118.494 331.117 106.565 257.181C113.885 272.805 122.257 290.533 129.986 310.88C138.728 333.883 146.65 360.234 151.312 390.726C152.636 399.403 153.688 408.427 154.432 417.789C154.485 418.532 154.551 419.31 154.6 420.04C154.67 420.974 154.718 421.93 154.78 422.877C155.854 439.155 155.946 456.478 154.789 474.939C153.693 492.431 151.501 510.911 147.909 530.52C123.432 664.016 112.93 677.269 119.286 782.573ZM292.628 -717.3L301.972 -746.355L311.317 -717.3H341.547L317.087 -699.345L326.436 -670.29L301.972 -688.249L277.517 -670.29L286.858 -699.345L262.398 -717.3H292.628ZM393.705 -731.109L403.05 -760.16L412.39 -731.109H442.624L418.165 -713.155L427.509 -684.099L403.05 -702.054L378.59 -684.099L387.93 -713.155L363.471 -731.109H393.705ZM503.41 -737.643L515.417 -774.984L527.425 -737.643H566.282L534.846 -714.565L546.849 -677.219L515.413 -700.301L483.977 -677.219L495.989 -714.565L464.548 -737.643H503.41ZM618.44 -731.109L627.784 -760.16L637.125 -731.109H667.359L642.899 -713.155L652.24 -684.099L627.78 -702.054L603.321 -684.099L612.665 -713.155L588.21 -731.109H618.44ZM719.517 -717.3L728.857 -746.355L738.202 -717.3H768.436L743.972 -699.345L753.317 -670.29L728.857 -688.249L704.398 -670.29L713.742 -699.345L689.283 -717.3H719.517ZM1056.93 -636.262C1056.93 -636.262 1039.63 -649.049 949.948 -672.376C939.036 -675.218 928.111 -677.886 917.442 -680.372C915.307 -680.87 913.181 -681.36 911.073 -681.844C906.848 -682.809 902.675 -683.743 898.568 -684.646C894.462 -685.554 890.425 -686.425 886.468 -687.266C867 -691.402 849.592 -694.76 836.282 -697.206C834.719 -697.491 833.201 -697.771 831.757 -698.033C828.003 -698.714 824.653 -699.305 821.765 -699.812C814.072 -701.155 809.666 -701.862 809.666 -701.862L781.716 -759.893C781.716 -759.893 751.477 -768.441 699.38 -776.451C680.99 -779.28 659.881 -782.042 636.416 -784.332C628.594 -785.102 620.513 -785.813 612.181 -786.458C603.849 -787.108 595.27 -787.686 586.458 -788.184C582.052 -788.437 577.585 -788.664 573.064 -788.873C564.019 -789.287 554.749 -789.612 545.264 -789.834C535.779 -790.056 526.078 -790.172 516.179 -790.172C506.28 -790.172 496.578 -790.056 487.093 -789.834C477.608 -789.612 468.338 -789.287 459.293 -788.873C454.772 -788.664 450.305 -788.437 445.899 -788.184C437.087 -787.686 428.508 -787.108 420.176 -786.458C411.844 -785.813 403.763 -785.102 395.941 -784.332C380.298 -782.807 365.703 -781.068 352.26 -779.24C342.181 -777.87 332.748 -776.451 324.015 -775.033C277.429 -767.463 250.642 -759.893 250.642 -759.893L222.692 -701.862C222.692 -701.862 218.286 -701.155 210.592 -699.812C209.628 -699.643 208.615 -699.465 207.555 -699.278C205.429 -698.9 203.105 -698.487 200.6 -698.033C199.157 -697.771 197.638 -697.491 196.075 -697.206C182.765 -694.76 165.357 -691.402 145.889 -687.266C143.908 -686.843 141.914 -686.416 139.894 -685.98C133.842 -684.673 127.618 -683.29 121.284 -681.844C119.176 -681.36 117.05 -680.87 114.915 -680.372C104.246 -677.886 93.3211 -675.218 82.4096 -672.376C79.6058 -671.646 76.8725 -670.93 74.2095 -670.223C63.5578 -667.39 54.0107 -664.721 45.4585 -662.222C39.0455 -660.35 33.1958 -658.571 27.8567 -656.894C-14.8428 -643.454 -24.5702 -636.262 -24.5702 -636.262V378.02C-24.5702 755.536 146.527 984.778 296.233 1113.1C304.552 1120.23 312.805 1127.05 320.956 1133.56C345.411 1153.11 368.977 1169.92 390.761 1184.22C408.913 1196.14 425.828 1206.32 440.991 1214.87C447.052 1218.29 452.84 1221.46 458.311 1224.37C463.778 1227.29 468.937 1229.95 473.748 1232.37C478.559 1234.79 483.022 1236.97 487.106 1238.92C491.191 1240.86 494.897 1242.57 498.185 1244.05C509.708 1249.25 516.179 1251.67 516.179 1251.67C516.179 1251.67 529.379 1246.73 551.66 1235.83C556.114 1233.64 560.934 1231.22 566.083 1228.56C581.529 1220.56 599.945 1210.35 620.443 1197.69C627.274 1193.48 634.334 1188.99 641.597 1184.22C645.228 1181.84 648.908 1179.38 652.631 1176.86C667.535 1166.76 683.165 1155.53 699.253 1143.11C703.276 1140 707.325 1136.82 711.401 1133.56C719.553 1127.05 727.805 1120.23 736.124 1113.1C744.439 1105.97 752.824 1098.53 761.24 1090.77C904.317 958.849 1056.93 734.562 1056.93 378.02V-636.262Z" fill="#05063A"/>
<path d="M761.231 1090.77C752.815 1098.53 744.43 1105.97 736.116 1113.1C727.797 1120.23 719.548 1127.05 711.392 1133.56C707.316 1136.82 703.267 1140 699.244 1143.11C683.156 1155.53 667.526 1166.76 652.627 1176.86C648.899 1179.38 645.219 1181.83 641.588 1184.22C634.325 1188.99 627.265 1193.47 620.434 1197.69C599.936 1210.34 581.52 1220.56 566.075 1228.56C560.925 1231.22 556.105 1233.64 551.651 1235.82C529.37 1246.72 516.17 1251.67 516.17 1251.67C516.17 1251.67 509.7 1249.25 498.181 1244.05C494.888 1242.57 491.182 1240.86 487.098 1238.91C483.013 1236.97 478.55 1234.79 473.739 1232.37C468.928 1229.95 463.77 1227.28 458.303 1224.37C452.832 1221.46 447.048 1218.29 440.983 1214.87C425.819 1206.31 408.904 1196.14 390.752 1184.22C368.969 1169.92 345.403 1153.1 320.948 1133.56C312.796 1127.05 304.543 1120.23 296.224 1113.1C146.519 984.771 -24.5787 755.534 -24.5787 378.018V-636.268C-24.5787 -636.268 -14.8513 -643.455 27.8482 -656.895C33.1873 -658.572 39.0414 -660.351 45.4544 -662.224C54.0023 -664.723 63.5536 -667.391 74.2054 -670.225C76.8683 -670.932 79.5973 -671.652 82.4011 -672.382C93.3125 -675.219 104.237 -677.888 114.907 -680.374C117.041 -680.872 119.167 -681.366 121.276 -681.846C127.614 -683.291 133.833 -684.674 139.885 -685.982C141.906 -686.418 143.904 -686.849 145.88 -687.267C165.348 -691.408 182.757 -694.761 196.067 -697.207C197.629 -697.492 199.152 -697.772 200.596 -698.035C203.096 -698.488 205.42 -698.902 207.546 -699.28C208.607 -699.467 209.619 -699.645 210.583 -699.814C218.282 -701.157 222.683 -701.868 222.683 -701.868L250.633 -759.899C250.633 -759.899 277.421 -767.469 324.007 -775.034C332.74 -776.457 342.172 -777.876 352.252 -779.246C365.694 -781.069 380.29 -782.808 395.933 -784.338C403.754 -785.103 411.84 -785.815 420.168 -786.46C428.5 -787.109 437.078 -787.687 445.89 -788.19C450.296 -788.439 454.764 -788.666 459.284 -788.875C468.33 -789.288 477.604 -789.613 487.089 -789.835C496.574 -790.058 506.271 -790.173 516.17 -790.173C526.069 -790.173 535.77 -790.058 545.256 -789.835C554.741 -789.613 564.011 -789.288 573.056 -788.875C577.576 -788.666 582.044 -788.439 586.45 -788.19C595.262 -787.687 603.84 -787.109 612.172 -786.46C620.504 -785.815 628.586 -785.103 636.407 -784.338C659.872 -782.043 680.982 -779.281 699.372 -776.453C751.468 -768.443 781.707 -759.899 781.707 -759.899L809.661 -701.868C809.661 -701.868 814.063 -701.157 821.757 -699.814C824.644 -699.307 827.994 -698.715 831.748 -698.035C833.192 -697.772 834.711 -697.492 836.273 -697.207C849.583 -694.761 866.992 -691.408 886.464 -687.267C890.417 -686.427 894.457 -685.555 898.564 -684.652C902.666 -683.745 906.843 -682.811 911.064 -681.846C913.177 -681.366 915.299 -680.872 917.433 -680.374C928.103 -677.888 939.032 -675.219 949.939 -672.382C1039.62 -649.05 1056.92 -636.268 1056.92 -636.268V378.018C1056.92 734.56 904.308 958.842 761.231 1090.77ZM956.163 -696.798C902.983 -710.63 850.186 -720.441 826.471 -724.586L804.146 -770.934L799.234 -781.127L788.428 -784.178C783.921 -785.455 676.145 -815.391 516.17 -815.391C356.195 -815.391 248.423 -785.455 243.912 -784.178L233.106 -781.127L228.194 -770.934L205.874 -724.586C182.154 -720.441 129.357 -710.63 76.1817 -696.798C-11.3476 -674.027 -34.3501 -660.284 -39.3107 -656.615L-49.5311 -649.063V378.018C-49.5311 534.707 -20.362 679.389 37.1707 808.046C83.2946 911.187 147.597 1004.19 228.286 1084.49C365.712 1221.23 501.773 1273.17 507.499 1275.31L516.17 1278.56L524.841 1275.31C530.568 1273.17 666.633 1221.23 804.054 1084.49C884.747 1004.19 949.045 911.187 995.169 808.046C1052.7 679.389 1081.88 534.707 1081.88 378.018V-649.059L1071.66 -656.615C1066.69 -660.284 1043.69 -674.027 956.163 -696.798Z" fill="#4D5871"/>
<path d="M463.053 556.679C463.053 507.858 430.495 467.31 387.641 459.109C382.452 458.117 377.117 457.57 371.664 457.57C370.488 457.57 369.331 457.619 368.169 457.664C336.059 458.976 308.206 478.238 292.871 506.475C307.515 502.139 320.685 499.248 332.01 497.362C344.273 476.837 364.049 463.445 386.435 463.445C423.668 463.445 453.85 500.342 453.85 545.858C453.85 591.374 423.668 628.27 386.435 628.27C384.344 628.27 382.289 628.119 380.251 627.892C374.194 636.303 367.922 645.456 361.738 655.196C365 655.578 368.305 655.787 371.664 655.787C422.136 655.787 463.053 611.414 463.053 556.679Z" fill="#B5BABC"/>
<path d="M453.86 545.908C453.86 500.392 423.678 463.496 386.446 463.496C364.059 463.496 344.283 476.887 332.02 497.413C360.485 492.676 377.418 494.144 377.418 494.144C377.418 494.144 354.473 501.736 323.644 516.114C320.704 525.365 319.031 535.39 319.031 545.908C319.031 553.162 319.872 560.158 321.311 566.856C364.517 541.994 394.72 536.893 394.72 536.893C394.72 536.893 363.698 556.827 328.68 588.23C335.872 602.876 346.634 614.577 359.552 621.462C395.156 587.403 422.824 575.275 422.824 575.275C422.824 575.275 403.097 596.227 380.261 627.937C382.299 628.164 384.355 628.32 386.446 628.32C423.678 628.32 453.86 591.423 453.86 545.908Z" fill="white"/>
<path d="M342.836 136.597C298.879 122.444 264.584 100.477 252.022 91.6937C239.462 82.9024 223.038 73.1463 219.175 77.0486C215.315 80.9528 221.594 96.5664 234.638 107.793C247.679 119.018 260.24 138.05 342.836 136.597Z" fill="#EB5437"/>
<path d="M121.392 144.04C121.059 142.182 120.681 140.324 120.445 138.457C120.685 140.337 121.019 142.191 121.392 144.04Z" fill="#B5BABC"/>
<path d="M146.824 189.118C146.868 189.162 146.912 189.202 146.952 189.247C149.074 191.297 151.314 193.272 153.647 195.18C153.783 195.291 153.915 195.402 154.052 195.513C156.336 197.359 158.726 199.129 161.204 200.828C161.42 200.975 161.631 201.122 161.847 201.269C164.29 202.923 166.829 204.493 169.453 205.992C169.735 206.156 170.021 206.316 170.307 206.481C172.908 207.94 175.593 209.323 178.362 210.626C178.701 210.786 179.039 210.942 179.383 211.102C182.143 212.374 184.986 213.566 187.9 214.673C188.274 214.816 188.652 214.953 189.031 215.096C191.962 216.177 194.964 217.182 198.041 218.093C198.424 218.205 198.816 218.311 199.203 218.423C202.315 219.316 205.493 220.126 208.741 220.833C209.106 220.909 209.481 220.98 209.846 221.055C213.156 221.749 216.528 222.354 219.974 222.843C220.278 222.888 220.59 222.919 220.898 222.963C224.437 223.444 228.033 223.831 231.7 224.089C231.889 224.102 232.083 224.106 232.272 224.12C236.079 224.373 239.948 224.516 243.883 224.516C292.292 224.516 332.363 203.901 352.716 175.188C318.996 185.987 238.126 205.262 202.79 180.726C220.053 180.726 231.083 178.502 262.321 165.208C225.331 147.765 200.669 130.322 180.936 73.8389C174.224 88.0086 171.456 108.058 174.361 134.476C155.302 108.058 150.685 82.8762 146.411 51.4102C140.601 57.7923 135.517 65.482 131.34 73.9945C127.255 108.338 124.381 132.844 147.788 157.99C140.9 154.41 121.234 142.717 120.235 112.643C119.684 117.771 119.491 122.97 119.654 128.205C119.728 130.696 119.891 133.182 120.142 135.677C120.23 136.598 120.309 137.514 120.424 138.434C120.662 140.302 121.031 142.161 121.366 144.02V144.029C124.746 160.81 133.624 176.3 146.824 189.118Z" fill="#B5BABC"/>
<path d="M225.515 483.965C244.521 454.469 250.301 423.573 249.068 394.633C249.205 410.204 246.656 426.032 239.904 441.069C244.156 394.028 240.379 355.335 216.065 315.321C210.594 308.73 204.242 302.161 196.813 295.801C230.075 346.306 238.689 421.945 225.515 483.965Z" fill="#B5BABC"/>
<path d="M239.892 441.066C246.644 426.027 249.192 410.204 249.052 394.628C249.053 394.248 249.047 393.861 249.039 393.479C248.318 382.745 243.786 348.742 216.038 315.321C240.357 355.335 244.14 394.026 239.892 441.066Z" fill="white"/>
<path d="M147.788 158C124.385 132.853 127.255 108.348 131.344 74C125.64 85.6257 121.718 98.8347 120.234 112.653C121.238 142.722 140.904 154.415 147.788 158Z" fill="white"/>
<path d="M113.094 516.507C84.4924 607.534 96.1345 679.454 108.956 712.637C103.877 628.517 121.857 585.897 140.357 537.61C146.928 520.47 151.893 498.597 154.803 474.923C155.96 456.461 155.868 439.134 154.794 422.856C157.039 461.34 151.418 480.905 142.976 504.441C127.253 548.262 107.491 583.531 103.388 660.343C99.8406 612.488 102.376 571.469 137.175 475.875C159.455 414.668 148.227 389.131 151.326 390.71C146.664 360.218 138.742 333.862 130 310.859C141.387 422.727 135.163 446.268 113.094 516.507Z" fill="#B5BABC"/>
<path d="M137.144 475.898C102.345 571.492 99.8099 612.511 103.358 660.366C107.46 583.554 127.223 548.285 142.941 504.464C151.387 480.928 157.008 461.363 154.763 422.879C154.702 421.936 154.653 420.98 154.583 420.042C154.534 419.312 154.468 418.539 154.416 417.796C153.672 408.429 152.62 399.41 151.295 390.733C148.196 389.154 159.424 414.691 137.144 475.898Z" fill="white"/>
<path d="M921.893 712.632C934.715 679.454 946.357 607.529 917.755 516.502C895.686 446.268 889.467 422.727 900.849 310.859C892.108 333.862 884.185 360.213 879.528 390.705C882.622 389.126 871.394 414.664 893.674 475.874C928.473 571.464 931.013 612.488 927.461 660.343C923.359 583.526 903.596 548.262 887.878 504.441C879.431 480.905 873.81 461.34 876.055 422.869C874.985 439.143 874.889 456.466 876.046 474.918C878.956 498.597 883.925 520.465 890.492 537.61C908.992 585.892 926.972 628.517 921.893 712.632Z" fill="#B5BABC"/>
<path d="M887.864 504.468C903.587 548.289 923.35 583.553 927.452 660.37C931 612.515 928.46 571.492 893.661 475.902C871.38 414.691 882.609 389.158 879.514 390.732C878.185 399.414 877.133 408.442 876.394 417.809C876.336 418.543 876.27 419.308 876.222 420.028C876.156 420.975 876.103 421.945 876.042 422.897C873.801 461.372 879.422 480.932 887.864 504.468Z" fill="white"/>
<path d="M662.636 457.664C657.39 458.571 651.263 459.212 643.159 459.11C600.31 467.311 567.752 507.859 567.752 556.679C567.752 611.414 608.669 655.787 659.142 655.787C662.496 655.787 665.805 655.578 669.067 655.195C662.878 645.455 656.611 636.302 650.554 627.888C648.516 628.115 646.456 628.27 644.37 628.27C607.137 628.27 576.956 591.374 576.956 545.858C576.956 500.342 607.137 463.446 644.37 463.446C666.752 463.446 686.532 476.837 698.791 497.362C710.116 499.248 723.29 502.139 737.929 506.475C722.599 478.238 694.741 458.976 662.636 457.664Z" fill="#B5BABC"/>
<path d="M644.387 463.496C607.154 463.496 576.973 500.392 576.973 545.908C576.973 591.423 607.154 628.32 644.387 628.32C646.473 628.32 648.533 628.169 650.571 627.942C627.736 596.227 608.008 575.275 608.008 575.275C608.008 575.275 635.676 587.403 671.28 621.462C684.195 614.582 694.961 602.876 702.153 588.23C667.13 556.827 636.112 536.893 636.112 536.893C636.112 536.893 666.311 541.999 709.521 566.86C710.96 560.158 711.801 553.162 711.801 545.908C711.801 535.39 710.129 525.365 707.188 516.119C676.36 501.736 653.415 494.144 653.415 494.144C653.415 494.144 670.347 492.676 698.812 497.413C686.549 476.887 666.769 463.496 644.387 463.496Z" fill="white"/>
<path d="M778.786 91.7854C766.226 100.568 731.93 122.534 687.974 136.685C770.575 138.154 783.133 119.119 796.177 107.895C809.214 96.6642 815.493 81.0493 811.63 77.1454C807.764 73.2386 791.343 82.9997 778.786 91.7854Z" fill="#EB5437"/>
<path d="M786.927 224.516C790.862 224.516 794.731 224.373 798.539 224.12C798.728 224.106 798.922 224.102 799.111 224.089C802.777 223.831 806.373 223.444 809.912 222.963C810.22 222.919 810.533 222.888 810.837 222.843C814.279 222.354 817.65 221.749 820.96 221.055C821.33 220.98 821.704 220.909 822.069 220.833C825.318 220.126 828.491 219.316 831.603 218.423C831.99 218.311 832.387 218.205 832.774 218.093C835.846 217.182 838.844 216.181 841.775 215.096C842.154 214.953 842.537 214.816 842.911 214.673C845.825 213.566 848.664 212.374 851.423 211.102C851.767 210.942 852.11 210.786 852.453 210.622C855.217 209.319 857.902 207.94 860.499 206.481C860.79 206.321 861.076 206.152 861.362 205.987C863.981 204.493 866.516 202.923 868.955 201.273C869.175 201.126 869.395 200.971 869.615 200.819C872.089 199.125 874.474 197.359 876.754 195.513C876.891 195.402 877.027 195.287 877.164 195.175C879.496 193.272 881.737 191.297 883.854 189.247C883.898 189.202 883.942 189.158 883.99 189.114C897.186 176.296 906.064 160.81 909.445 144.029V144.02C909.814 142.17 910.145 140.316 910.382 138.434C910.501 137.514 910.576 136.598 910.668 135.677C910.915 133.182 911.082 130.696 911.157 128.205C911.315 122.97 911.126 117.771 910.576 112.643C909.577 142.717 889.906 154.41 883.022 157.99C906.425 132.844 903.555 108.338 899.471 73.9945C895.289 65.482 890.21 57.7923 884.4 51.4102C880.122 82.8762 875.509 108.058 856.446 134.476C859.355 108.058 856.586 88.0086 849.87 73.8389C830.142 130.322 805.48 147.765 768.489 165.208C799.727 178.502 810.753 180.726 828.016 180.726C792.685 205.262 711.815 185.987 678.09 175.188C698.447 203.901 738.519 224.516 786.927 224.516Z" fill="#B5BABC"/>
<path d="M910.394 138.457C910.154 140.333 909.821 142.191 909.447 144.04C909.821 142.191 910.154 140.333 910.394 138.457Z" fill="#B5BABC"/>
<path d="M790.955 441.074C784.203 426.033 781.654 410.208 781.786 394.633C780.558 423.577 786.338 454.474 805.344 483.97C792.17 421.95 800.784 346.311 834.046 295.801C826.617 302.165 820.265 308.734 814.794 315.325C790.48 355.339 786.703 394.033 790.955 441.074Z" fill="#B5BABC"/>
<path d="M790.927 441.055C786.678 394.016 790.461 355.326 814.78 315.312C787.032 348.733 782.501 382.736 781.779 393.47C781.772 393.852 781.766 394.238 781.763 394.619C781.627 410.194 784.175 426.017 790.927 441.055Z" fill="white"/>
<path d="M883.098 158.093C889.982 154.509 909.648 142.816 910.652 112.747C909.168 98.9285 905.247 85.7195 899.542 74.0938C903.631 108.442 906.501 132.947 883.098 158.093Z" fill="white"/>
<path d="M413.11 206.231C414.329 182.228 397.841 133.84 424.642 111.682C414.338 150.14 431.416 176.704 427.763 209.94C424.686 237.897 413.321 237.519 392.128 271.396C395.174 244.933 411.891 230.234 413.11 206.231ZM411.24 10.8266C387.489 -4.8997 340.59 -14.6352 321.096 -13.8881C321.743 -14.7331 322.588 -15.5425 323.552 -16.3297C322.715 -16.3297 321.853 -16.3431 321.096 -16.3208C330.233 -26.1676 372.871 -31.7047 405.76 -23.7037C438.648 -15.7026 480.679 -12.0112 515.394 -12.0112C550.113 -12.0112 592.139 -15.7026 625.028 -23.7037C657.92 -31.7047 700.554 -26.1676 709.691 -16.3208C708.939 -16.3431 708.072 -16.3297 707.24 -16.3297C708.199 -15.5425 709.049 -14.7331 709.691 -13.8881C690.201 -14.6352 643.303 -4.8997 619.548 10.8266C595.792 26.5529 547.675 41.532 515.394 41.532C483.113 41.532 434.995 26.5529 411.24 10.8266ZM321.58 43.4845C294.664 34.5628 271.961 3.54607 271.961 3.54607C271.961 3.54607 295.087 19.6904 324.943 31.5697C354.798 43.4444 402.736 48.5857 402.736 48.5857C402.736 48.5857 348.491 52.4061 321.58 43.4845ZM709.212 43.4845C682.301 52.4061 628.056 48.5857 628.056 48.5857C628.056 48.5857 675.993 43.4444 705.849 31.5697C735.705 19.6904 758.83 3.54607 758.83 3.54607C758.83 3.54607 736.123 34.5628 709.212 43.4845ZM617.681 206.231C618.896 230.234 635.618 244.933 638.664 271.396C617.466 237.519 606.101 237.897 603.029 209.94C599.371 176.704 616.449 150.14 606.149 111.682C632.946 133.84 616.462 182.228 617.681 206.231ZM377.999 355.431C349.032 310.04 386.014 278.872 414.897 261.847C444.132 244.617 445.352 199.075 442.306 144.3C439.26 89.5248 489.204 75.3729 515.394 75.3729C541.583 75.3729 591.532 89.5248 588.486 144.3C585.44 199.075 586.659 244.617 615.894 261.847C644.773 278.872 681.759 310.04 652.793 355.431C683.177 331.472 675.161 284.031 659.351 260.068C649.073 244.497 643.862 219.24 641.353 192.969C639.214 170.536 639.033 147.364 639.434 128.823C640.297 88.5775 634.729 69.4533 616.053 59.7044C617.008 59.74 617.857 59.8556 618.769 59.9268C618.403 59.7934 618.148 59.7044 618.148 59.7044C618.148 59.7044 637.48 60.5984 677.072 61.2166C716.664 61.8303 739.807 51.3698 773.307 16.9063C801.002 -11.5887 819.171 -20.7105 853.53 -22.3294C844.736 -32.0427 835.413 -40.911 825.646 -48.9609C806.975 -59.6482 763.263 -78.3588 674.224 -89.2773C685.545 -80.7827 691.39 -73.9202 694.854 -68.9168C625.617 -95.1391 548.511 -88.1655 548.511 -88.1655L515.394 -49.6681L482.281 -88.1655C482.281 -88.1655 405.174 -95.1391 335.938 -68.9168C339.397 -73.9202 345.247 -80.7827 356.568 -89.2773C267.542 -78.3632 223.826 -59.6527 205.15 -48.9654C195.436 -40.9599 186.157 -32.1361 177.402 -22.4806C214.424 -21.3821 232.915 -12.6872 261.679 16.9063C295.179 51.3698 318.323 61.8303 357.91 61.2166C387.013 60.7629 405.126 60.1581 412.701 59.869C413.392 59.8245 414.021 59.7311 414.739 59.7044C414.677 59.7311 414.629 59.7667 414.572 59.7978C416.064 59.7356 416.834 59.7044 416.834 59.7044C416.834 59.7044 413.313 60.8608 408.057 64.0674C394.725 74.8481 390.605 93.8611 391.358 128.823C391.754 147.364 391.578 170.536 389.434 192.969C386.925 219.24 381.714 244.497 371.441 260.068C355.63 284.031 347.615 331.472 377.999 355.431Z" fill="#B5BABC"/>
<path d="M271.979 3.51562C271.979 3.51562 294.687 34.5245 321.596 43.4454C348.504 52.3664 402.742 48.5566 402.742 48.5566C402.742 48.5566 354.813 43.4086 324.957 31.5373C295.103 19.6575 271.979 3.51562 271.979 3.51562Z" fill="white"/>
<path d="M628.073 48.4922C628.073 48.4922 682.314 52.3103 709.221 43.3851C736.132 34.4584 758.841 3.4495 758.841 3.4495C758.841 3.4495 735.713 19.597 705.862 31.4712C676.009 43.3511 628.073 48.4922 628.073 48.4922Z" fill="white"/>
<path d="M371.447 260.047C381.72 244.472 386.931 219.214 389.44 192.947C389.273 191.773 389.101 190.617 388.921 189.287C383.987 208.389 369.189 249.093 342.885 260.723C351.926 246.602 364.259 205.899 352.749 175.166L352.718 175.175C332.361 203.888 292.294 224.502 243.881 224.502C239.946 224.502 236.081 224.36 232.274 224.107C232.085 224.093 231.891 224.089 231.702 224.075C228.031 223.817 224.435 223.431 220.896 222.95C220.592 222.906 220.28 222.875 219.972 222.83C216.53 222.341 213.158 221.736 209.844 221.042C209.478 220.967 209.109 220.9 208.743 220.82C205.49 220.113 202.317 219.303 199.201 218.409C198.818 218.298 198.426 218.196 198.039 218.08C194.966 217.168 191.965 216.168 189.033 215.083C188.655 214.94 188.276 214.802 187.902 214.66C184.984 213.553 182.145 212.361 179.38 211.089C179.042 210.929 178.698 210.773 178.359 210.613C175.595 209.31 172.906 207.927 170.304 206.468C170.018 206.308 169.737 206.143 169.451 205.979C166.832 204.48 164.292 202.91 161.849 201.255C161.633 201.113 161.418 200.962 161.206 200.815C158.724 199.116 156.334 197.346 154.054 195.5C153.917 195.389 153.785 195.278 153.649 195.167C151.312 193.259 149.076 191.284 146.954 189.234C146.91 189.189 146.871 189.149 146.827 189.105C133.626 176.287 124.744 160.797 121.368 144.016L121.364 144.012C123.151 153.996 126.302 163.892 131.302 173.33C155.762 219.495 194.09 208.389 223.687 279.825C253.278 351.26 249.167 396.945 249.167 396.945C249.167 396.945 249.18 395.717 249.031 393.476C249.039 393.858 249.044 394.241 249.044 394.628C250.276 423.568 244.497 454.464 225.491 483.96C238.665 421.94 230.051 346.301 196.793 295.791C187.105 287.497 175.635 279.545 162.03 272.349C242.613 378.844 216.626 456.888 203.959 528.186C236.878 489.889 245.998 470.809 298.178 458.32C278.781 470.444 259.454 490.151 241.803 520.643C240.483 522.925 239.237 525.215 238.044 527.51C257.904 518.17 276.329 511.401 292.875 506.504C308.21 478.267 336.063 459.005 368.172 457.693C369.334 457.644 370.492 457.595 371.667 457.595C377.12 457.595 382.455 458.147 387.645 459.139C430.498 467.34 463.056 507.888 463.056 556.708C463.056 611.443 422.14 655.816 371.667 655.816C368.308 655.816 365.003 655.607 361.741 655.224C350.786 672.471 340.143 691.516 331.485 711.285C376.61 705.819 427.615 679.921 450.525 627.227C484.54 548.996 469.271 504.436 424.798 466.864C418.165 461.26 408.706 455.278 397.306 450.559C358.625 432.311 284.089 397.305 332.198 304.744C342.405 348.507 372.318 355.872 380.175 357.082C380.157 357.06 380.144 357.042 380.127 357.02C379.396 356.499 378.701 355.952 378.005 355.405C347.621 331.451 355.636 284.01 371.447 260.047Z" fill="#5C667D"/>
<path d="M120.461 138.45C120.692 140.309 121.068 142.171 121.398 144.031" stroke="#5C667D" stroke-width="4.16667e-05" stroke-linecap="round" stroke-linejoin="round"/>
<path d="M119.909 132.933C119.958 133.849 120.06 134.756 120.14 135.667C119.891 133.173 119.722 130.684 119.647 128.199C119.736 129.795 119.824 131.373 119.909 132.933Z" fill="#5C667D"/>
<path d="M154.779 474.985C151.87 498.659 146.901 520.532 140.333 537.672C121.834 585.959 103.853 628.579 108.933 712.699C96.1111 679.516 84.469 607.596 113.07 516.569C135.14 446.33 141.363 422.789 129.977 310.922C122.248 290.574 113.876 272.851 106.556 257.223C118.484 331.162 123.251 421.9 97.8145 533.923C69.7194 657.639 97.8145 742.288 119.276 782.617C112.921 677.314 123.423 664.061 147.9 530.561C151.491 510.956 153.683 492.477 154.779 474.985Z" fill="#5C667D"/>
<path d="M924.263 257.223C916.943 272.851 908.576 290.574 900.842 310.922C889.46 422.79 895.683 446.33 917.753 516.57C946.354 607.592 934.708 679.517 921.886 712.695C926.97 628.58 908.985 585.959 890.485 537.673C883.918 520.528 878.949 498.66 876.039 474.985C877.135 492.473 879.327 510.952 882.923 530.561C907.396 664.057 917.902 677.311 911.542 782.614C933.009 742.284 961.104 657.635 933.009 533.924C907.568 421.896 912.339 331.158 924.263 257.223Z" fill="#5C667D"/>
<path d="M910.901 132.933C910.986 131.373 911.075 129.791 911.163 128.199C911.083 130.684 910.919 133.173 910.67 135.667C910.75 134.756 910.852 133.849 910.901 132.933Z" fill="#5C667D"/>
<path d="M826.857 528.186C814.19 456.888 788.203 378.844 868.782 272.349C855.181 279.545 843.711 287.492 834.023 295.791C800.761 346.297 792.151 421.94 805.321 483.96C786.315 454.46 780.535 423.568 781.768 394.623C781.772 394.241 781.777 393.858 781.781 393.476C781.631 395.713 781.645 396.945 781.645 396.945C781.645 396.945 777.534 351.26 807.13 279.825C836.721 208.389 875.05 219.495 899.51 173.33C904.51 163.892 907.661 153.996 909.448 144.012V144.016C906.068 160.797 897.19 176.283 883.994 189.1C883.946 189.145 883.902 189.189 883.858 189.234C881.74 191.284 879.504 193.259 877.167 195.162C877.031 195.273 876.899 195.389 876.758 195.5C874.478 197.346 872.092 199.112 869.619 200.806C869.398 200.957 869.178 201.113 868.958 201.26C866.52 202.91 863.985 204.48 861.37 205.974C861.08 206.139 860.793 206.303 860.503 206.468C857.906 207.927 855.221 209.305 852.457 210.608C852.118 210.769 851.77 210.929 851.427 211.089C848.667 212.361 845.833 213.553 842.914 214.66C842.54 214.802 842.157 214.94 841.779 215.083C838.847 216.168 835.85 217.168 832.778 218.08C832.39 218.191 831.994 218.298 831.607 218.409C828.495 219.303 825.321 220.113 822.073 220.815C821.708 220.895 821.333 220.967 820.964 221.042C817.654 221.736 814.282 222.341 810.84 222.83C810.536 222.875 810.224 222.906 809.916 222.95C806.377 223.431 802.781 223.817 799.114 224.075C798.925 224.089 798.731 224.093 798.542 224.107C794.735 224.36 790.866 224.502 786.931 224.502C738.523 224.502 698.451 203.888 678.098 175.175L678.063 175.162C666.557 205.899 678.886 246.598 687.931 260.718C661.623 249.093 646.825 208.389 641.895 189.283C641.71 190.617 641.543 191.773 641.371 192.947C643.88 219.214 649.092 244.472 659.369 260.047C675.18 284.01 683.195 331.451 652.811 355.405C652.116 355.952 651.416 356.499 650.681 357.024C650.663 357.047 650.65 357.064 650.632 357.087C658.489 355.877 688.411 348.507 698.618 304.744C746.723 397.305 672.187 432.311 633.51 450.555C622.11 455.278 612.651 461.26 606.014 466.864C561.54 504.436 546.271 548.996 580.287 627.227C603.197 679.921 654.202 705.819 699.327 711.285C690.669 691.516 680.026 672.471 669.075 655.224C665.813 655.607 662.503 655.816 659.149 655.816C608.677 655.816 567.76 611.443 567.76 556.708C567.76 507.883 600.318 467.34 643.167 459.139C651.266 459.237 657.397 458.601 662.644 457.693C694.749 459.005 722.607 478.267 737.937 506.504C754.483 511.401 772.912 518.17 792.767 527.51C791.575 525.215 790.333 522.925 789.013 520.643C771.363 490.151 752.031 470.444 732.638 458.32C784.814 470.809 793.938 489.889 826.857 528.186Z" fill="#5C667D"/>
<path d="M910.389 138.457C910.151 140.333 909.821 142.189 909.452 144.038" stroke="#5C667D" stroke-width="4.16667e-05" stroke-linecap="round" stroke-linejoin="round"/>
<path d="M261.699 16.8275C232.94 -12.7614 214.444 -21.4606 177.427 -22.5547C167.81 -11.952 158.826 -0.353001 150.652 12.3756C163.976 14.5326 204.338 20.252 241.571 46.5009C278.808 72.7498 307.383 92.8745 341.156 89.3744C374.23 85.9454 379.872 62.0092 412.726 59.7943C405.146 60.0834 387.034 60.6883 357.935 61.1375C318.343 61.7557 295.2 51.2908 261.699 16.8275Z" fill="#5C667D"/>
<path d="M677.087 61.1784C637.495 60.5646 618.168 59.6662 618.168 59.6662C618.168 59.6662 618.419 59.7552 618.784 59.8886C651.026 62.3925 656.827 86.0087 689.671 89.4155C723.444 92.9112 752.019 72.7908 789.256 46.5417C826.489 20.2926 866.851 14.5731 880.175 12.4161C872.041 -0.250362 863.101 -11.8005 853.546 -22.3633C819.187 -20.7488 801.017 -11.627 773.323 16.868C739.823 51.3316 716.679 61.7921 677.087 61.1784Z" fill="#5C667D"/>
<path d="M414.593 59.7848C412.207 61.0427 410.046 62.4607 408.078 64.0477C413.334 60.8471 416.855 59.6914 416.855 59.6914C416.855 59.6914 416.085 59.7225 414.593 59.7848Z" fill="#5C667D"/>
<path d="M619.549 10.8127C643.305 -4.91367 690.203 -14.6493 709.693 -13.9021C709.051 -14.7471 708.201 -15.5565 707.242 -16.3438C686.541 -16.2993 642.385 -8.44944 619.549 3.97688C595.799 16.9013 547.676 29.2076 515.395 29.2076C483.114 29.2076 434.996 16.9013 411.246 3.97688C388.41 -8.44944 344.254 -16.2993 323.553 -16.3438C322.589 -15.5565 321.744 -14.7471 321.102 -13.9021C340.592 -14.6493 387.49 -4.91367 411.246 10.8127C434.996 26.5391 483.114 41.5182 515.395 41.5182C547.676 41.5182 595.794 26.5391 619.549 10.8127Z" fill="#5C667D"/>
<path d="M615.914 261.793C586.679 244.559 585.46 199.016 588.506 144.245C591.552 89.469 541.607 75.3125 515.414 75.3125C489.224 75.3125 439.28 89.469 442.326 144.245C445.372 199.016 444.152 244.559 414.917 261.793C386.034 278.818 349.052 309.986 378.019 355.373C378.714 355.92 379.41 356.467 380.145 356.987C380.18 357.014 380.224 357.041 380.259 357.067C381.236 345.642 389.177 336.253 399.829 333.362V333.353C400.132 333.269 400.537 333.167 401.017 333.055C401.206 333.011 401.391 332.966 401.585 332.926C408.834 331.299 431.753 327.95 465.333 339.985C494.665 350.494 501.487 350.912 515.414 350.912C529.345 350.912 536.167 350.494 565.503 339.985C599.074 327.95 621.997 331.303 629.251 332.926C629.44 332.966 629.625 333.011 629.81 333.051C630.294 333.167 630.699 333.269 631.003 333.353L630.999 333.362C641.655 336.253 649.595 345.646 650.572 357.067C650.608 357.041 650.647 357.019 650.682 356.992C651.417 356.467 652.117 355.924 652.813 355.373C681.779 309.986 644.797 278.818 615.914 261.793Z" fill="white"/>
<path d="M622.44 365.64C625.838 366.537 629.315 364.506 630.235 361.079C631.15 357.638 629.134 354.096 625.728 353.171C624.891 352.944 604.767 347.699 572.288 359.323C541.257 370.436 532.507 371.427 515.425 371.427C498.338 371.427 489.587 370.436 458.556 359.323C426.077 347.695 405.962 352.94 405.117 353.171C401.728 354.091 399.73 357.603 400.623 361.03C401.512 364.466 405.012 366.506 408.405 365.64C408.586 365.6 425.919 361.332 454.283 371.485C485.45 382.647 495.851 384.336 515.425 384.336C534.994 384.336 545.395 382.647 576.562 371.485C604.838 361.359 622.162 365.568 622.44 365.64Z" fill="#EB5437"/>
</g>
</g>
<path d="M1 1H1031V484C1031 490.075 1026.08 495 1020 495H12C5.92487 495 1 490.075 1 484V1Z" stroke="white" stroke-opacity="0.08" stroke-width="2"/>
</svg>
