<svg width="56" height="56" viewBox="0 0 56 56" fill="none" xmlns="http://www.w3.org/2000/svg">
<rect width="56" height="56" rx="28" fill="#4267B2"/>
<path d="M28 19C23.05 19 19 23.0572 19 28.0542C19 32.5723 22.294 36.3223 26.596 37V30.6747H24.31V28.0542H26.596V26.0572C26.596 23.7892 27.937 22.5422 29.998 22.5422C30.979 22.5422 32.005 22.7139 32.005 22.7139V24.9458H30.871C29.755 24.9458 29.404 25.6416 29.404 26.3554V28.0542H31.906L31.501 30.6747H29.404V37C31.5248 36.6637 33.456 35.5773 34.8489 33.9368C36.2419 32.2963 37.0048 30.2099 37 28.0542C37 23.0572 32.95 19 28 19Z" fill="white"/>
<rect x="1" y="1" width="54" height="54" rx="27" stroke="white" stroke-opacity="0.08" stroke-width="2"/>
</svg>
