<svg width="38" height="24" viewBox="0 0 38 24" fill="none" xmlns="http://www.w3.org/2000/svg">
<g clip-path="url(#clip0_110_65)">
<path d="M34.597 0H3.40308C3.27316 0 3.14301 0 3.01332 0.000747416C2.9037 0.00151748 2.79433 0.00271788 2.68496 0.00566224C2.44642 0.0120266 2.20585 0.0259104 1.9703 0.0676751C1.73099 0.110165 1.5083 0.17947 1.29105 0.288593C1.07747 0.395745 0.881942 0.535897 0.712492 0.703137C0.54297 0.870377 0.400907 1.06296 0.292316 1.27389C0.181683 1.48822 0.111386 1.70798 0.0686154 1.94426C0.0260539 2.1767 0.0118866 2.41399 0.00545845 2.64907C0.00251985 2.75697 0.00125947 2.86487 0.000545477 2.97274C-0.00021213 3.10096 4.04057e-05 3.22909 4.04057e-05 3.35753V20.6427C4.04057e-05 20.7712 -0.00021213 20.8991 0.000545477 21.0275C0.00125947 21.1354 0.00251985 21.2433 0.00545845 21.3512C0.0118866 21.5861 0.0260539 21.8234 0.0686154 22.0557C0.111386 22.2921 0.181683 22.5118 0.292316 22.7261C0.400907 22.9371 0.54297 23.1299 0.712492 23.2969C0.881942 23.4644 1.07747 23.6045 1.29105 23.7114C1.5083 23.8208 1.73099 23.8902 1.9703 23.9326C2.20585 23.9741 2.44642 23.9882 2.68496 23.9946C2.79433 23.9971 2.9037 23.9985 3.01332 23.999C3.14301 24 3.27316 24 3.40308 24H34.597C34.7267 24 34.8568 24 34.9865 23.999C35.0958 23.9985 35.2052 23.9971 35.3151 23.9946C35.5531 23.9882 35.7936 23.9741 36.0298 23.9326C36.2688 23.8902 36.4915 23.8208 36.7088 23.7114C36.9226 23.6045 37.1175 23.4644 37.2873 23.2969C37.4566 23.1299 37.5986 22.9371 37.7075 22.7261C37.8184 22.5118 37.8886 22.2921 37.9312 22.0557C37.9738 21.8234 37.9876 21.5861 37.994 21.3512C37.997 21.2433 37.9985 21.1354 37.999 21.0275C38 20.8991 38 20.7712 38 20.6427V3.35753C38 3.22909 38 3.10096 37.999 2.97274C37.9985 2.86487 37.997 2.75697 37.994 2.64907C37.9876 2.41399 37.9738 2.1767 37.9312 1.94426C37.8886 1.70798 37.8184 1.48822 37.7075 1.27389C37.5986 1.06296 37.4566 0.870377 37.2873 0.703137C37.1175 0.535897 36.9226 0.395745 36.7088 0.288593C36.4915 0.17947 36.2688 0.110165 36.0298 0.0676751C35.7936 0.0259104 35.5531 0.0120266 35.3151 0.00566224C35.2052 0.00271788 35.0958 0.00151748 34.9865 0.000747416C34.8568 0 34.7267 0 34.597 0Z" fill="white"/>
<path d="M34.5966 0.800781L34.9804 0.801506C35.0843 0.802231 35.1883 0.803341 35.2928 0.806149C35.4746 0.810996 35.6873 0.820712 35.8856 0.855773C36.0579 0.886394 36.2025 0.932961 36.3412 1.00263C36.4781 1.07128 36.6036 1.16124 36.7132 1.26916C36.8231 1.37781 36.9144 1.50179 36.9849 1.63839C37.0552 1.77417 37.1021 1.91608 37.1329 2.08736C37.1684 2.28082 37.1782 2.49123 37.1832 2.67172C37.186 2.7736 37.1873 2.87547 37.1878 2.97977C37.1888 3.1059 37.1888 3.23197 37.1888 3.35835V20.6435C37.1888 20.7699 37.1888 20.8958 37.1878 21.0246C37.1873 21.1264 37.186 21.2283 37.1831 21.3304C37.1782 21.5106 37.1684 21.7209 37.1325 21.9166C37.1021 22.0856 37.0552 22.2275 36.9846 22.364C36.9143 22.5002 36.8231 22.6241 36.7136 22.732C36.6034 22.8407 36.4784 22.9304 36.3398 22.9997C36.2021 23.069 36.0578 23.1156 35.8872 23.1459C35.6849 23.1814 35.4633 23.1912 35.2964 23.1957C35.1914 23.198 35.0869 23.1994 34.9798 23.1999C34.8523 23.2009 34.7242 23.2009 34.5966 23.2009H3.40274C3.40104 23.2009 3.39938 23.2009 3.39766 23.2009C3.27153 23.2009 3.14515 23.2009 3.01672 23.1999C2.91201 23.1994 2.80753 23.198 2.70652 23.1958C2.5358 23.1912 2.31405 23.1814 2.11343 23.1461C1.94131 23.1156 1.79702 23.069 1.65753 22.9988C1.52027 22.9301 1.39531 22.8405 1.28508 22.7316C1.17571 22.6239 1.08482 22.5004 1.01455 22.364C0.944207 22.2277 0.897144 22.0853 0.866199 21.9144C0.830428 21.719 0.820602 21.5095 0.815692 21.3305C0.812889 21.228 0.811718 21.1256 0.811052 21.0237L0.810547 20.7229L0.81057 20.6435V3.35835L0.810547 3.27894L0.811029 2.97882C0.811718 2.87633 0.812889 2.77387 0.815692 2.67147C0.820602 2.4923 0.830428 2.28275 0.866495 2.08575C0.897167 1.91636 0.944207 1.77398 1.01492 1.63698C1.08464 1.50156 1.17569 1.37794 1.28564 1.2695C1.39515 1.16142 1.52052 1.07157 1.65865 1.00227C1.79665 0.932938 1.94122 0.886394 2.11333 0.855841C2.31164 0.82069 2.52448 0.810996 2.70677 0.806126C2.81068 0.803341 2.91458 0.802231 3.01771 0.801529L3.40274 0.800781H34.5966Z" fill="white"/>
</g>
<path d="M18.0716 11.7772V15.2781H16.9648V6.63281H19.899C20.6426 6.63281 21.2767 6.88164 21.7955 7.3793C22.3259 7.87695 22.591 8.48455 22.591 9.2021C22.591 9.93701 22.3259 10.5446 21.7955 11.0365C21.2825 11.5283 20.6484 11.7714 19.899 11.7714H18.0716V11.7772ZM18.0716 7.69756V10.7124H19.9221C20.3602 10.7124 20.7291 10.562 21.0173 10.2669C21.3113 9.97173 21.4612 9.61296 21.4612 9.20789C21.4612 8.80861 21.3113 8.45562 21.0173 8.1605C20.7291 7.8538 20.3659 7.70335 19.9221 7.70335H18.0716V7.69756Z" fill="#232B46"/>
<path d="M25.4851 9.16797C26.3036 9.16797 26.9492 9.38786 27.4219 9.82765C27.8946 10.2674 28.131 10.8693 28.131 11.6331V15.2787H27.0761V14.457H27.0299C26.5745 15.134 25.9635 15.4697 25.2026 15.4697C24.5512 15.4697 24.0093 15.2787 23.5712 14.891C23.1331 14.5033 22.9141 14.023 22.9141 13.4443C22.9141 12.8309 23.1446 12.3449 23.6058 11.9861C24.067 11.6215 24.6838 11.4421 25.4505 11.4421C26.1076 11.4421 26.6495 11.5637 27.0703 11.8067V11.5521C27.0703 11.1644 26.9204 10.8403 26.6149 10.5683C26.3094 10.2964 25.952 10.1633 25.5427 10.1633C24.9259 10.1633 24.4359 10.4237 24.0785 10.9503L23.1043 10.3369C23.6404 9.55568 24.4359 9.16797 25.4851 9.16797ZM24.0554 13.4617C24.0554 13.751 24.1765 13.9941 24.4244 14.185C24.6665 14.376 24.9547 14.4744 25.2833 14.4744C25.7502 14.4744 26.1653 14.3008 26.5284 13.9536C26.8916 13.6064 27.0761 13.2013 27.0761 12.7326C26.7302 12.4606 26.2517 12.3217 25.6349 12.3217C25.1853 12.3217 24.8106 12.4317 24.5108 12.6458C24.2053 12.8714 24.0554 13.1434 24.0554 13.4617Z" fill="#232B46"/>
<path d="M34.1492 9.35938L30.4599 17.8774H29.3185L30.6904 14.8972L28.2578 9.35938H29.4626L31.215 13.6068H31.2381L32.9444 9.35938H34.1492Z" fill="#232B46"/>
<path d="M13.669 12.0695C13.669 11.7073 13.6367 11.3607 13.5768 11.0273H8.9375V12.937L11.6094 12.9375C11.501 13.5729 11.1522 14.1145 10.6179 14.4756V15.7146H12.2083C13.137 14.8518 13.669 13.5764 13.669 12.0695Z" fill="#4285F4"/>
<path d="M10.6185 14.4773C10.1758 14.7771 9.60568 14.9524 8.93872 14.9524C7.65034 14.9524 6.55739 14.0809 6.16598 12.9062H4.52539V14.184C5.33819 15.8031 7.00875 16.9141 8.93872 16.9141C10.2726 16.9141 11.3933 16.4737 12.2089 15.7157L10.6185 14.4773Z" fill="#34A853"/>
<path d="M6.01125 11.9566C6.01125 11.6268 6.06601 11.3079 6.16573 11.0082V9.73047H4.52515C4.18908 10.4 4 11.1557 4 11.9566C4 12.7575 4.18965 13.5132 4.52515 14.1827L6.16573 12.905C6.06601 12.6053 6.01125 12.2864 6.01125 11.9566Z" fill="#F2AE14"/>
<path d="M8.93872 8.96169C9.66678 8.96169 10.3187 9.21341 10.8335 9.70528L12.243 8.29159C11.3869 7.49129 10.2709 7 8.93872 7C7.00933 7 5.33819 8.11104 4.52539 9.73016L6.16598 11.0079C6.55739 9.83316 7.65035 8.96169 8.93872 8.96169Z" fill="#E94235"/>
<defs>
<clipPath id="clip0_110_65">
<rect width="38" height="24" fill="white"/>
</clipPath>
</defs>
</svg>
