<svg width="56" height="56" viewBox="0 0 56 56" fill="none" xmlns="http://www.w3.org/2000/svg">
<rect width="56" height="56" rx="28" fill="white"/>
<g clip-path="url(#clip0_2_2895)">
<path d="M35.8767 27.28H28.341V29.464H33.6908C33.4196 32.512 30.8146 33.816 28.3493 33.816C25.2018 33.816 22.4407 31.4 22.4407 28C22.4407 24.72 25.0704 22.184 28.3575 22.184C30.8968 22.184 32.3842 23.76 32.3842 23.76L33.9456 22.176C33.9456 22.176 31.9404 20 28.2753 20C23.6076 20 20 23.84 20 28C20 32.04 23.3939 36 28.3986 36C32.7951 36 36 33.064 36 28.728C36 27.808 35.8767 27.28 35.8767 27.28Z" fill="white"/>
<mask id="mask0_2_2895" style="mask-type:alpha" maskUnits="userSpaceOnUse" x="20" y="20" width="16" height="16">
<path d="M35.8767 27.28H28.341V29.464H33.6908C33.4196 32.512 30.8146 33.816 28.3493 33.816C25.2018 33.816 22.4407 31.4 22.4407 28C22.4407 24.72 25.0704 22.184 28.3575 22.184C30.8968 22.184 32.3842 23.76 32.3842 23.76L33.9456 22.176C33.9456 22.176 31.9404 20 28.2753 20C23.6076 20 20 23.84 20 28C20 32.04 23.3939 36 28.3986 36C32.7951 36 36 33.064 36 28.728C36 27.808 35.8767 27.28 35.8767 27.28Z" fill="white"/>
</mask>
<g mask="url(#mask0_2_2895)">
<path d="M37 27.8422C37 27.2011 36.9513 26.5924 36.8677 26H27V29.6601H33.5048C33.3029 30.8611 31.8773 31.8102 31 32.5L31.8338 35H34.5213C36.0949 33.3039 37 30.8043 37 27.8422Z" fill="#4285F4"/>
<path d="M28.044 37C30.4775 37 32.5129 36.2214 34 34.9022L31.1009 32.7394C30.2897 33.2585 29.2607 33.5757 28.044 33.5757C25.6931 33.5757 23.7135 31.5546 23 29.5L20 30V32.2276C21.4796 35.0536 24.5215 37 28.044 37Z" fill="#34A853"/>
<path d="M23 29.7026C22.8102 29.1673 22.7116 28.5948 22.7116 28C22.7116 27.4052 22.8178 26.8327 23 26.2974V24H19.9791C19.3567 25.2045 19 26.5576 19 28C19 29.4424 19.3567 30.7955 19.9791 32L23 29.7026Z" fill="#F2AE14"/>
<path d="M28.0053 22.4243C29.3284 22.4243 31.5657 23.6421 32.5 24.5L35 21.5C33.4527 20.1014 30.4271 19 28.0053 19C24.4997 19 21.4725 20.9464 20 23.7724L22.9749 26C23.685 23.9454 25.6658 22.4243 28.0053 22.4243Z" fill="#E94235"/>
</g>
</g>
<rect x="1" y="1" width="54" height="54" rx="27" stroke="white" stroke-opacity="0.08" stroke-width="2"/>
<defs>
<clipPath id="clip0_2_2895">
<rect width="24" height="24" fill="white" transform="translate(16 16)"/>
</clipPath>
</defs>
</svg>
