<svg width="40" height="40" viewBox="0 0 40 40" fill="none" xmlns="http://www.w3.org/2000/svg">
<rect x="1" y="1" width="38" height="38" rx="19" fill="#050A20"/>
<g clip-path="url(#clip0_2_3557)">
<path fill-rule="evenodd" clip-rule="evenodd" d="M17.6903 14.8855C18.0801 14.4425 18.7503 14 20.0002 14C21.2502 14 21.9203 14.4425 22.3101 14.8855L22.3101 14.8855C22.6387 15.259 22.8296 15.7815 22.9229 16.4877C22.986 16.9657 22.9986 17.4666 22.9999 18H17.0006C17.0019 17.4666 17.0144 16.9657 17.0776 16.4877C17.1709 15.7814 17.3617 15.259 17.6903 14.8855ZM15.0002 18C15.0018 17.4273 15.0173 16.8126 15.0948 16.2257C15.2137 15.3253 15.4916 14.3568 16.1887 13.5644L16.1887 13.5644C16.9689 12.6776 18.1919 12 20.0002 12C21.8086 12 23.0315 12.6776 23.8117 13.5644C24.5089 14.3569 24.7867 15.3253 24.9056 16.2257C24.9832 16.8126 24.9987 17.4273 25.0003 18H25.04C26.1037 18 27 18.8505 27 19.9412V25.1176C27 26.7281 25.6739 28 24.08 28H15.92C14.3261 28 13 26.7281 13 25.1176V19.9412C13 18.8505 13.8963 18 14.96 18H15.0002ZM16.0021 20H15V25.1176C15 25.5864 15.3931 26 15.92 26H24.08C24.6069 26 25 25.5864 25 25.1176V20H23.9983H16.0021Z" fill="url(#paint0_linear_2_3557)"/>
</g>
<rect x="1" y="1" width="38" height="38" rx="19" stroke="#232B46" stroke-width="2"/>
<defs>
<linearGradient id="paint0_linear_2_3557" x1="14" y1="18.3333" x2="24.8536" y2="28.2542" gradientUnits="userSpaceOnUse">
<stop offset="0.0001" stop-color="#6FB1FC"/>
<stop offset="0.9999" stop-color="#C86DD7"/>
<stop offset="1" stop-color="#C86DD7"/>
</linearGradient>
<clipPath id="clip0_2_3557">
<rect width="24" height="24" fill="white" transform="translate(8 8)"/>
</clipPath>
</defs>
</svg>
