<svg width="38" height="24" viewBox="0 0 38 24" fill="none" xmlns="http://www.w3.org/2000/svg">
<rect x="3.05176e-05" width="38" height="24" rx="2" fill="black"/>
<path d="M23.0564 4.87752H14.9443V19.0291H23.0564V4.87752Z" fill="#FF5F00"/>
<path d="M15.4592 11.9539C15.4579 10.591 15.7761 9.24564 16.3896 8.01974C17.003 6.79385 17.8958 5.71951 19.0002 4.87806C17.6325 3.83447 15.99 3.18548 14.2604 3.00526C12.5307 2.82504 10.7837 3.12087 9.21909 3.85893C7.65445 4.597 6.33527 5.74751 5.41235 7.17898C4.48943 8.61046 4 10.2651 4 11.9539C4 13.6426 4.48943 15.2973 5.41235 16.7287C6.33527 18.1602 7.65445 19.3107 9.21909 20.0488C10.7837 20.7868 12.5307 21.0827 14.2604 20.9025C15.99 20.7222 17.6325 20.0732 19.0002 19.0297C17.8958 18.1882 17.003 17.1139 16.3896 15.888C15.7761 14.6621 15.4579 13.3168 15.4592 11.9539Z" fill="#D9222A"/>
<path d="M34 11.9539C34 13.6426 33.5107 15.2972 32.5878 16.7287C31.6649 18.1602 30.3458 19.3107 28.7812 20.0488C27.2166 20.7868 25.4696 21.0827 23.74 20.9025C22.0104 20.7222 20.3679 20.0732 19.0002 19.0297C20.1037 18.1874 20.9957 17.1128 21.6091 15.8871C22.2225 14.6614 22.5412 13.3165 22.5412 11.9539C22.5412 10.5912 22.2225 9.24627 21.6091 8.02057C20.9957 6.79487 20.1037 5.72036 19.0002 4.87806C20.3679 3.83447 22.0104 3.18547 23.74 3.00526C25.4696 2.82504 27.2166 3.12088 28.7812 3.85895C30.3458 4.59702 31.6649 5.74754 32.5878 7.17901C33.5107 8.61049 34 10.2651 34 11.9539Z" fill="#FFA501"/>
<path d="M33.1156 17.5306V17.2408H33.2359V17.1818H32.9294V17.2408H33.0498V17.5306H33.1156ZM33.7106 17.5306V17.1812H33.6167L33.5086 17.4215L33.4005 17.1812H33.3065V17.5306H33.3729V17.2671L33.4742 17.4942H33.543L33.6443 17.2665V17.5306H33.7106Z" fill="#F79E1B"/>
</svg>
