<svg width="40" height="40" viewBox="0 0 40 40" fill="none" xmlns="http://www.w3.org/2000/svg">
<rect x="1" y="1" width="38" height="38" rx="19" fill="#050A20"/>
<path d="M20.069 27.9821L20.069 27.9821C20.1019 27.9702 20.1447 27.9526 20.1961 27.9296C20.2937 27.8859 20.423 27.8228 20.5776 27.7421C20.5249 27.7696 20.4756 27.7948 20.4298 27.8178C20.1627 27.9517 19.8497 27.9592 19.5765 27.8382M20.069 27.9821L19.576 27.838C19.5762 27.8381 19.5763 27.8381 19.5765 27.8382M20.069 27.9821C20.0527 27.988 20.0387 27.9925 20.0272 27.9955L20.0218 27.9969L20.0199 27.9974L20.0137 27.9986C20.0108 27.9991 20.0079 27.9995 20.0051 27.9997L20.002 28C20.0012 28 20.0008 28 20.0009 28C20.0011 28 20.0011 28 20.0008 28C20.0003 28 19.9991 27.9999 19.9972 27.9997C19.9942 27.9995 19.991 27.999 19.9878 27.9985L19.9815 27.9973L19.9806 27.9971L19.9771 27.9962L19.9762 27.996M20.069 27.9821L19.9762 27.996M19.5765 27.8382C19.6554 27.8732 19.7251 27.9029 19.7841 27.9269M19.5765 27.8382L19.7841 27.927C19.7841 27.927 19.7841 27.9269 19.7841 27.9269M19.9762 27.996L19.9739 27.9954L19.9735 27.9953M19.9762 27.996L19.9735 27.9953M19.9735 27.9953C19.9611 27.9922 19.9457 27.9875 19.9276 27.9814L19.9276 27.9814M19.9735 27.9953L19.9276 27.9814M19.9276 27.9814C19.891 27.9691 19.8427 27.9508 19.7841 27.9269M19.9276 27.9814L19.7841 27.9269M13.5604 15.1545C13.218 15.3226 13.0009 15.6708 13.0009 16.0523V15.4287V15.4286L13.5604 15.1545ZM27.0005 16.0529C27.0005 15.6712 26.7832 15.3228 26.4404 15.1548L20.4416 12.2158L27.0005 15.4286V16.0529ZM20.4405 12.2153C20.163 12.0795 19.8384 12.0796 19.561 12.2155L20.0009 12L20.4405 12.2153ZM19.0726 21.9515L18.716 21.5236C18.8255 21.5592 18.9415 21.576 19.0594 21.5719C19.1773 21.5678 19.2919 21.543 19.3987 21.5L19.0726 21.9515ZM17.9822 20.6431C17.9823 20.6432 17.9823 20.6432 17.9824 20.6433L17.9822 20.6431ZM13.0008 20.1748C13.0001 20.7739 12.9994 21.4368 13.1466 22.1246C12.9993 21.4402 12.9984 20.7816 13.0005 20.1905L13.0005 20.1895C13.0007 20.137 13.0008 20.0841 13.0009 20.032L13.0009 20.1189C13.0008 20.1375 13.0008 20.1561 13.0008 20.1748Z" stroke="url(#paint0_linear_2_3558)" stroke-width="2" stroke-linecap="round" stroke-linejoin="round"/>
<rect x="1" y="1" width="38" height="38" rx="19" stroke="#232B46" stroke-width="2"/>
<defs>
<linearGradient id="paint0_linear_2_3558" x1="12.2956" y1="11.3103" x2="29.5498" y2="26.6085" gradientUnits="userSpaceOnUse">
<stop stop-color="#D1A04A"/>
<stop offset="0.46875" stop-color="#F2D289"/>
<stop offset="0.979167" stop-color="#D1A04A"/>
</linearGradient>
</defs>
</svg>
