<svg width="38" height="24" viewBox="0 0 38 24" fill="none" xmlns="http://www.w3.org/2000/svg">
<rect width="38" height="24" rx="2" fill="#0E4595"/>
<path fill-rule="evenodd" clip-rule="evenodd" d="M13.3607 16.8852L15.1309 7.19728H17.9623L16.1908 16.8852H13.3607Z" fill="white"/>
<path fill-rule="evenodd" clip-rule="evenodd" d="M26.4205 7.40689C25.8595 7.21062 24.9806 7 23.8829 7C21.0853 7 19.1145 8.31396 19.0978 10.1971C19.082 11.5892 20.5047 12.3657 21.5786 12.8291C22.6807 13.304 23.0512 13.6069 23.046 14.0309C23.039 14.6802 22.1659 14.9769 21.3521 14.9769C20.2188 14.9769 19.6168 14.8301 18.687 14.4684L18.3221 14.3144L17.9247 16.4831C18.586 16.7535 19.8089 16.9879 21.0786 17C24.0548 17 25.9869 15.7011 26.0089 13.6901C26.0196 12.5881 25.2652 11.7494 23.6318 11.058C22.6421 10.6098 22.036 10.3108 22.0425 9.85695C22.0425 9.45426 22.5555 9.02367 23.6639 9.02367C24.5898 9.01025 25.2604 9.19856 25.783 9.39483L26.0367 9.50662L26.4205 7.40689Z" fill="white"/>
<path fill-rule="evenodd" clip-rule="evenodd" d="M33.7084 7.19728H31.5205C30.8428 7.19728 30.3356 7.36979 30.0379 8.00066L25.833 16.879H28.8062C28.8062 16.879 29.2923 15.6852 29.4023 15.4231C29.7272 15.4231 32.6154 15.4273 33.0283 15.4273C33.113 15.7664 33.3728 16.879 33.3728 16.879H36L33.7084 7.19728ZM30.2376 13.4515C30.4718 12.8934 31.3657 10.7434 31.3657 10.7434C31.3489 10.7692 31.5981 10.1825 31.7411 9.81876L31.9325 10.654C31.9325 10.654 32.4746 12.9666 32.5879 13.4515L30.2376 13.4515Z" fill="white"/>
<path fill-rule="evenodd" clip-rule="evenodd" d="M10.9582 7.19728L8.18618 13.8037L7.89084 12.4611C7.37481 10.9134 5.76703 9.23668 3.9696 8.39721L6.50422 16.8697L9.49984 16.8665L13.9573 7.19728H10.9582Z" fill="white"/>
<path fill-rule="evenodd" clip-rule="evenodd" d="M5.60166 7.19728H1.03614L1 7.39884C4.55193 8.20074 6.90221 10.1386 7.87781 12.4671L6.88507 8.01516C6.71368 7.40171 6.21659 7.21865 5.60166 7.19728Z" fill="#F2AE14"/>
</svg>
